<mxfile host="65bd71144e">
    <diagram id="cpEL2eFbY2XY4uLcKBuD" name="第 1 页">
        <mxGraphModel dx="4292" dy="799" grid="1" gridSize="10" guides="1" tooltips="1" connect="1" arrows="1" fold="1" page="1" pageScale="1" pageWidth="827" pageHeight="1169" math="0" shadow="0">
            <root>
                <mxCell id="0"/>
                <mxCell id="1" parent="0"/>
                <mxCell id="14" value="" style="line;strokeWidth=2;html=1;labelBorderColor=none;fontSize=23;fillColor=#eeeeee;strokeColor=#FFFFFF;direction=south;" parent="1" vertex="1">
                    <mxGeometry x="100" y="1400" width="10" height="340" as="geometry"/>
                </mxCell>
                <mxCell id="15" value="" style="rounded=0;whiteSpace=wrap;html=1;strokeColor=#FFFFFF;" parent="1" vertex="1">
                    <mxGeometry x="106" y="1430" width="120" height="60" as="geometry"/>
                </mxCell>
                <mxCell id="16" value="&lt;font style=&quot;font-size: 16px;&quot;&gt;获取&lt;font style=&quot;font-size: 16px;&quot;&gt;流程&lt;/font&gt;单&lt;/font&gt;" style="text;html=1;align=center;verticalAlign=middle;resizable=0;points=[];autosize=1;strokeColor=none;fillColor=none;" parent="1" vertex="1">
                    <mxGeometry x="116" y="1445" width="100" height="30" as="geometry"/>
                </mxCell>
                <mxCell id="29" style="html=1;exitX=1;exitY=0.5;exitDx=0;exitDy=0;exitPerimeter=0;fontSize=16;entryX=1;entryY=0.5;entryDx=0;entryDy=0;entryPerimeter=0;strokeColor=default;rounded=1;endArrow=none;endFill=0;" parent="1" source="30" edge="1">
                    <mxGeometry relative="1" as="geometry">
                        <mxPoint x="392" y="1570.5" as="targetPoint"/>
                    </mxGeometry>
                </mxCell>
                <mxCell id="30" value="" style="line;strokeWidth=2;html=1;labelBorderColor=none;fontSize=23;fillColor=default;strokeColor=#FFFFFF;" parent="1" vertex="1">
                    <mxGeometry x="106" y="1530.5" width="371" height="10" as="geometry"/>
                </mxCell>
                <mxCell id="31" style="edgeStyle=none;shape=connector;rounded=1;html=1;exitX=1;exitY=0.5;exitDx=0;exitDy=0;exitPerimeter=0;labelBackgroundColor=default;strokeColor=default;fontFamily=Helvetica;fontSize=16;fontColor=default;endArrow=none;endFill=0;" parent="1" source="32" edge="1">
                    <mxGeometry relative="1" as="geometry">
                        <mxPoint x="392" y="1570.5" as="targetPoint"/>
                    </mxGeometry>
                </mxCell>
                <mxCell id="32" value="" style="line;strokeWidth=2;html=1;labelBorderColor=none;fontSize=23;fillColor=default;strokeColor=#FFFFFF;" parent="1" vertex="1">
                    <mxGeometry x="106" y="1600.5" width="371" height="10" as="geometry"/>
                </mxCell>
                <mxCell id="33" value="T" style="text;html=1;align=center;verticalAlign=middle;resizable=0;points=[];autosize=1;strokeColor=none;fillColor=none;fontSize=16;fontFamily=Helvetica;fontColor=default;" parent="1" vertex="1">
                    <mxGeometry x="365" y="1538.5" width="30" height="30" as="geometry"/>
                </mxCell>
                <mxCell id="34" value="F" style="text;html=1;align=center;verticalAlign=middle;resizable=0;points=[];autosize=1;strokeColor=none;fillColor=none;fontSize=16;fontFamily=Helvetica;fontColor=default;" parent="1" vertex="1">
                    <mxGeometry x="365" y="1575.5" width="30" height="30" as="geometry"/>
                </mxCell>
                <mxCell id="35" value="" style="rounded=0;whiteSpace=wrap;html=1;strokeColor=#FFFFFF;" parent="1" vertex="1">
                    <mxGeometry x="477" y="1512.5" width="120" height="46" as="geometry"/>
                </mxCell>
                <mxCell id="36" value="" style="rounded=0;whiteSpace=wrap;html=1;strokeColor=#FFFFFF;" parent="1" vertex="1">
                    <mxGeometry x="477" y="1581.5" width="120" height="46" as="geometry"/>
                </mxCell>
                <mxCell id="37" value="&lt;span style=&quot;font-size: 16px;&quot;&gt;显示流程单&lt;/span&gt;" style="text;html=1;align=center;verticalAlign=middle;resizable=0;points=[];autosize=1;strokeColor=none;fillColor=none;" parent="1" vertex="1">
                    <mxGeometry x="487" y="1520.5" width="100" height="30" as="geometry"/>
                </mxCell>
                <mxCell id="38" value="&lt;span style=&quot;font-size: 16px;&quot;&gt;不做处理&lt;/span&gt;" style="text;html=1;align=center;verticalAlign=middle;resizable=0;points=[];autosize=1;strokeColor=none;fillColor=none;" parent="1" vertex="1">
                    <mxGeometry x="492" y="1590.5" width="90" height="30" as="geometry"/>
                </mxCell>
                <mxCell id="39" value="" style="rounded=0;whiteSpace=wrap;html=1;strokeColor=#FFFFFF;" parent="1" vertex="1">
                    <mxGeometry x="106" y="1645" width="120" height="60" as="geometry"/>
                </mxCell>
                <mxCell id="40" value="&lt;span style=&quot;font-size: 16px;&quot;&gt;结束&lt;/span&gt;" style="text;html=1;align=center;verticalAlign=middle;resizable=0;points=[];autosize=1;strokeColor=none;fillColor=none;" parent="1" vertex="1">
                    <mxGeometry x="136" y="1660" width="60" height="30" as="geometry"/>
                </mxCell>
                <mxCell id="41" value="" style="line;strokeWidth=2;html=1;labelBorderColor=none;fontSize=23;fillColor=#eeeeee;strokeColor=#FFFFFF;direction=south;" parent="1" vertex="1">
                    <mxGeometry x="750" y="1400" width="10" height="340" as="geometry"/>
                </mxCell>
                <mxCell id="42" value="" style="rounded=0;whiteSpace=wrap;html=1;strokeColor=#FFFFFF;" parent="1" vertex="1">
                    <mxGeometry x="756" y="1430" width="120" height="60" as="geometry"/>
                </mxCell>
                <mxCell id="43" value="&lt;font style=&quot;font-size: 16px;&quot;&gt;获取&lt;font style=&quot;font-size: 16px;&quot;&gt;流程&lt;/font&gt;单&lt;/font&gt;" style="text;html=1;align=center;verticalAlign=middle;resizable=0;points=[];autosize=1;strokeColor=none;fillColor=none;" parent="1" vertex="1">
                    <mxGeometry x="766" y="1445" width="100" height="30" as="geometry"/>
                </mxCell>
                <mxCell id="44" style="html=1;exitX=1;exitY=0.5;exitDx=0;exitDy=0;exitPerimeter=0;fontSize=16;entryX=1;entryY=0.5;entryDx=0;entryDy=0;entryPerimeter=0;strokeColor=default;rounded=1;endArrow=none;endFill=0;" parent="1" source="45" edge="1">
                    <mxGeometry relative="1" as="geometry">
                        <mxPoint x="1041.9999999999998" y="1570.5" as="targetPoint"/>
                    </mxGeometry>
                </mxCell>
                <mxCell id="45" value="" style="line;strokeWidth=2;html=1;labelBorderColor=none;fontSize=23;fillColor=default;strokeColor=#FFFFFF;" parent="1" vertex="1">
                    <mxGeometry x="756" y="1530.5" width="371" height="10" as="geometry"/>
                </mxCell>
                <mxCell id="46" style="edgeStyle=none;shape=connector;rounded=1;html=1;exitX=1;exitY=0.5;exitDx=0;exitDy=0;exitPerimeter=0;labelBackgroundColor=default;strokeColor=default;fontFamily=Helvetica;fontSize=16;fontColor=default;endArrow=none;endFill=0;" parent="1" source="47" edge="1">
                    <mxGeometry relative="1" as="geometry">
                        <mxPoint x="1041.9999999999998" y="1570.5" as="targetPoint"/>
                    </mxGeometry>
                </mxCell>
                <mxCell id="47" value="" style="line;strokeWidth=2;html=1;labelBorderColor=none;fontSize=23;fillColor=default;strokeColor=#FFFFFF;" parent="1" vertex="1">
                    <mxGeometry x="756" y="1600.5" width="371" height="10" as="geometry"/>
                </mxCell>
                <mxCell id="48" value="T" style="text;html=1;align=center;verticalAlign=middle;resizable=0;points=[];autosize=1;strokeColor=none;fillColor=none;fontSize=16;fontFamily=Helvetica;fontColor=default;" parent="1" vertex="1">
                    <mxGeometry x="1015" y="1538.5" width="30" height="30" as="geometry"/>
                </mxCell>
                <mxCell id="49" value="F" style="text;html=1;align=center;verticalAlign=middle;resizable=0;points=[];autosize=1;strokeColor=none;fillColor=none;fontSize=16;fontFamily=Helvetica;fontColor=default;" parent="1" vertex="1">
                    <mxGeometry x="1015" y="1575.5" width="30" height="30" as="geometry"/>
                </mxCell>
                <mxCell id="50" value="查询目标项目" style="rounded=0;whiteSpace=wrap;html=1;strokeColor=#FFFFFF;" parent="1" vertex="1">
                    <mxGeometry x="1127" y="1512.5" width="120" height="46" as="geometry"/>
                </mxCell>
                <mxCell id="51" value="" style="rounded=0;whiteSpace=wrap;html=1;strokeColor=#FFFFFF;" parent="1" vertex="1">
                    <mxGeometry x="1127" y="1581.5" width="120" height="46" as="geometry"/>
                </mxCell>
                <mxCell id="53" value="&lt;span style=&quot;font-size: 16px;&quot;&gt;不做处理&lt;/span&gt;" style="text;html=1;align=center;verticalAlign=middle;resizable=0;points=[];autosize=1;strokeColor=none;fillColor=none;" parent="1" vertex="1">
                    <mxGeometry x="1142" y="1590.5" width="90" height="30" as="geometry"/>
                </mxCell>
                <mxCell id="54" value="" style="rounded=0;whiteSpace=wrap;html=1;strokeColor=#FFFFFF;" parent="1" vertex="1">
                    <mxGeometry x="756" y="1645" width="120" height="60" as="geometry"/>
                </mxCell>
                <mxCell id="55" value="&lt;span style=&quot;font-size: 16px;&quot;&gt;结束&lt;/span&gt;" style="text;html=1;align=center;verticalAlign=middle;resizable=0;points=[];autosize=1;strokeColor=none;fillColor=none;" parent="1" vertex="1">
                    <mxGeometry x="786" y="1660" width="60" height="30" as="geometry"/>
                </mxCell>
                <mxCell id="58" value="" style="rounded=0;whiteSpace=wrap;html=1;strokeColor=#FFFFFF;" parent="1" vertex="1">
                    <mxGeometry x="750" y="1895" width="120" height="60" as="geometry"/>
                </mxCell>
                <mxCell id="59" value="&lt;span style=&quot;font-size: 16px;&quot;&gt;查询目标项目&lt;/span&gt;" style="text;html=1;align=center;verticalAlign=middle;resizable=0;points=[];autosize=1;strokeColor=none;fillColor=none;" parent="1" vertex="1">
                    <mxGeometry x="750" y="1910" width="120" height="30" as="geometry"/>
                </mxCell>
                <mxCell id="60" value="" style="shape=link;html=1;rounded=1;labelBackgroundColor=default;strokeColor=default;fontFamily=Helvetica;fontSize=16;fontColor=default;endArrow=none;endFill=0;strokeWidth=2;" parent="1" edge="1">
                    <mxGeometry width="100" relative="1" as="geometry">
                        <mxPoint x="870" y="1928.66" as="sourcePoint"/>
                        <mxPoint x="960" y="1929" as="targetPoint"/>
                    </mxGeometry>
                </mxCell>
                <mxCell id="64" value="def" style="text;html=1;align=center;verticalAlign=middle;resizable=0;points=[];autosize=1;strokeColor=none;fillColor=none;fontSize=16;fontFamily=Helvetica;fontColor=default;" parent="1" vertex="1">
                    <mxGeometry x="890" y="1880" width="50" height="30" as="geometry"/>
                </mxCell>
                <mxCell id="65" value="" style="line;strokeWidth=2;html=1;labelBorderColor=none;fontSize=23;fillColor=#eeeeee;strokeColor=#FFFFFF;direction=south;" parent="1" vertex="1">
                    <mxGeometry x="956" y="1770" width="10" height="250" as="geometry"/>
                </mxCell>
                <mxCell id="66" value="" style="rounded=0;whiteSpace=wrap;html=1;strokeColor=#FFFFFF;" parent="1" vertex="1">
                    <mxGeometry x="962" y="1790" width="120" height="60" as="geometry"/>
                </mxCell>
                <mxCell id="67" value="&lt;span style=&quot;font-size: 16px;&quot;&gt;查询目标项目&lt;/span&gt;" style="text;html=1;align=center;verticalAlign=middle;resizable=0;points=[];autosize=1;strokeColor=none;fillColor=none;" parent="1" vertex="1">
                    <mxGeometry x="956" y="1805" width="120" height="30" as="geometry"/>
                </mxCell>
                <mxCell id="69" style="html=1;exitX=1;exitY=0.5;exitDx=0;exitDy=0;exitPerimeter=0;fontSize=16;entryX=1;entryY=0.5;entryDx=0;entryDy=0;entryPerimeter=0;strokeColor=default;rounded=1;endArrow=none;endFill=0;" parent="1" source="70" edge="1">
                    <mxGeometry relative="1" as="geometry">
                        <mxPoint x="1138" y="1925.5" as="targetPoint"/>
                    </mxGeometry>
                </mxCell>
                <mxCell id="70" value="" style="line;strokeWidth=2;html=1;labelBorderColor=none;fontSize=23;fillColor=default;strokeColor=#FFFFFF;" parent="1" vertex="1">
                    <mxGeometry x="962" y="1885.5" width="261" height="10" as="geometry"/>
                </mxCell>
                <mxCell id="71" style="edgeStyle=none;shape=connector;rounded=1;html=1;exitX=1;exitY=0.5;exitDx=0;exitDy=0;exitPerimeter=0;labelBackgroundColor=default;strokeColor=default;fontFamily=Helvetica;fontSize=16;fontColor=default;endArrow=none;endFill=0;" parent="1" source="72" edge="1">
                    <mxGeometry relative="1" as="geometry">
                        <mxPoint x="1138" y="1925.5" as="targetPoint"/>
                    </mxGeometry>
                </mxCell>
                <mxCell id="72" value="" style="line;strokeWidth=2;html=1;labelBorderColor=none;fontSize=23;fillColor=default;strokeColor=#FFFFFF;" parent="1" vertex="1">
                    <mxGeometry x="962" y="1955.5" width="261" height="10" as="geometry"/>
                </mxCell>
                <mxCell id="73" value="T" style="text;html=1;align=center;verticalAlign=middle;resizable=0;points=[];autosize=1;strokeColor=none;fillColor=none;fontSize=16;fontFamily=Helvetica;fontColor=default;" parent="1" vertex="1">
                    <mxGeometry x="1111" y="1893.5" width="30" height="30" as="geometry"/>
                </mxCell>
                <mxCell id="74" value="F" style="text;html=1;align=center;verticalAlign=middle;resizable=0;points=[];autosize=1;strokeColor=none;fillColor=none;fontSize=16;fontFamily=Helvetica;fontColor=default;" parent="1" vertex="1">
                    <mxGeometry x="1111" y="1930.5" width="30" height="30" as="geometry"/>
                </mxCell>
                <mxCell id="75" value="" style="rounded=0;whiteSpace=wrap;html=1;strokeColor=#FFFFFF;" parent="1" vertex="1">
                    <mxGeometry x="1223" y="1867.5" width="120" height="46" as="geometry"/>
                </mxCell>
                <mxCell id="76" value="" style="rounded=0;whiteSpace=wrap;html=1;strokeColor=#FFFFFF;" parent="1" vertex="1">
                    <mxGeometry x="1223" y="1936.5" width="120" height="46" as="geometry"/>
                </mxCell>
                <mxCell id="77" value="&lt;span style=&quot;font-size: 16px;&quot;&gt;不做处理&lt;/span&gt;" style="text;html=1;align=center;verticalAlign=middle;resizable=0;points=[];autosize=1;strokeColor=none;fillColor=none;" parent="1" vertex="1">
                    <mxGeometry x="1238" y="1945.5" width="90" height="30" as="geometry"/>
                </mxCell>
                <mxCell id="78" value="&lt;span style=&quot;font-size: 16px;&quot;&gt;确认项目开始&lt;/span&gt;" style="text;html=1;align=center;verticalAlign=middle;resizable=0;points=[];autosize=1;strokeColor=none;fillColor=none;" parent="1" vertex="1">
                    <mxGeometry x="1223" y="1875.5" width="120" height="30" as="geometry"/>
                </mxCell>
                <mxCell id="79" value="" style="rounded=0;whiteSpace=wrap;html=1;strokeColor=#FFFFFF;" parent="1" vertex="1">
                    <mxGeometry x="750" y="2145" width="120" height="60" as="geometry"/>
                </mxCell>
                <mxCell id="80" value="&lt;span style=&quot;font-size: 16px;&quot;&gt;确认项目开始&lt;/span&gt;" style="text;html=1;align=center;verticalAlign=middle;resizable=0;points=[];autosize=1;strokeColor=none;fillColor=none;" parent="1" vertex="1">
                    <mxGeometry x="750" y="2160" width="120" height="30" as="geometry"/>
                </mxCell>
                <mxCell id="81" value="" style="shape=link;html=1;rounded=1;labelBackgroundColor=default;strokeColor=default;fontFamily=Helvetica;fontSize=16;fontColor=default;endArrow=none;endFill=0;strokeWidth=2;" parent="1" edge="1">
                    <mxGeometry width="100" relative="1" as="geometry">
                        <mxPoint x="870" y="2178.66" as="sourcePoint"/>
                        <mxPoint x="960" y="2179" as="targetPoint"/>
                    </mxGeometry>
                </mxCell>
                <mxCell id="82" value="def" style="text;html=1;align=center;verticalAlign=middle;resizable=0;points=[];autosize=1;strokeColor=none;fillColor=none;fontSize=16;fontFamily=Helvetica;fontColor=default;" parent="1" vertex="1">
                    <mxGeometry x="890" y="2130" width="50" height="30" as="geometry"/>
                </mxCell>
                <mxCell id="83" value="" style="line;strokeWidth=2;html=1;labelBorderColor=none;fontSize=23;fillColor=#eeeeee;strokeColor=#FFFFFF;direction=south;" parent="1" vertex="1">
                    <mxGeometry x="956" y="2070" width="10" height="200" as="geometry"/>
                </mxCell>
                <mxCell id="86" style="html=1;exitX=1;exitY=0.5;exitDx=0;exitDy=0;exitPerimeter=0;fontSize=16;entryX=1;entryY=0.5;entryDx=0;entryDy=0;entryPerimeter=0;strokeColor=default;rounded=1;endArrow=none;endFill=0;" parent="1" source="87" edge="1">
                    <mxGeometry relative="1" as="geometry">
                        <mxPoint x="1138" y="2175.5" as="targetPoint"/>
                    </mxGeometry>
                </mxCell>
                <mxCell id="87" value="" style="line;strokeWidth=2;html=1;labelBorderColor=none;fontSize=23;fillColor=default;strokeColor=#FFFFFF;" parent="1" vertex="1">
                    <mxGeometry x="962" y="2135.5" width="261" height="10" as="geometry"/>
                </mxCell>
                <mxCell id="88" style="edgeStyle=none;shape=connector;rounded=1;html=1;exitX=1;exitY=0.5;exitDx=0;exitDy=0;exitPerimeter=0;labelBackgroundColor=default;strokeColor=default;fontFamily=Helvetica;fontSize=16;fontColor=default;endArrow=none;endFill=0;" parent="1" source="89" edge="1">
                    <mxGeometry relative="1" as="geometry">
                        <mxPoint x="1138" y="2175.5" as="targetPoint"/>
                    </mxGeometry>
                </mxCell>
                <mxCell id="89" value="" style="line;strokeWidth=2;html=1;labelBorderColor=none;fontSize=23;fillColor=default;strokeColor=#FFFFFF;" parent="1" vertex="1">
                    <mxGeometry x="962" y="2205.5" width="261" height="10" as="geometry"/>
                </mxCell>
                <mxCell id="90" value="T" style="text;html=1;align=center;verticalAlign=middle;resizable=0;points=[];autosize=1;strokeColor=none;fillColor=none;fontSize=16;fontFamily=Helvetica;fontColor=default;" parent="1" vertex="1">
                    <mxGeometry x="1111" y="2143.5" width="30" height="30" as="geometry"/>
                </mxCell>
                <mxCell id="91" value="F" style="text;html=1;align=center;verticalAlign=middle;resizable=0;points=[];autosize=1;strokeColor=none;fillColor=none;fontSize=16;fontFamily=Helvetica;fontColor=default;" parent="1" vertex="1">
                    <mxGeometry x="1111" y="2180.5" width="30" height="30" as="geometry"/>
                </mxCell>
                <mxCell id="92" value="" style="rounded=0;whiteSpace=wrap;html=1;strokeColor=#FFFFFF;" parent="1" vertex="1">
                    <mxGeometry x="1223" y="2117.5" width="120" height="46" as="geometry"/>
                </mxCell>
                <mxCell id="93" value="" style="rounded=0;whiteSpace=wrap;html=1;strokeColor=#FFFFFF;" parent="1" vertex="1">
                    <mxGeometry x="1223" y="2186.5" width="147" height="46" as="geometry"/>
                </mxCell>
                <mxCell id="94" value="&lt;span style=&quot;font-size: 16px;&quot;&gt;确认项目已经开始&lt;/span&gt;" style="text;html=1;align=center;verticalAlign=middle;resizable=0;points=[];autosize=1;strokeColor=none;fillColor=none;" parent="1" vertex="1">
                    <mxGeometry x="1221.5" y="2195.5" width="150" height="30" as="geometry"/>
                </mxCell>
                <mxCell id="95" value="&lt;span style=&quot;font-size: 16px;&quot;&gt;不做处理&lt;/span&gt;" style="text;html=1;align=center;verticalAlign=middle;resizable=0;points=[];autosize=1;strokeColor=none;fillColor=none;" parent="1" vertex="1">
                    <mxGeometry x="1238" y="2125.5" width="90" height="30" as="geometry"/>
                </mxCell>
                <mxCell id="164" value="" style="line;strokeWidth=2;html=1;labelBorderColor=none;fontSize=23;fillColor=#eeeeee;strokeColor=#FFFFFF;direction=south;" parent="1" vertex="1">
                    <mxGeometry x="1530" y="1400" width="10" height="340" as="geometry"/>
                </mxCell>
                <mxCell id="165" value="" style="rounded=0;whiteSpace=wrap;html=1;strokeColor=#FFFFFF;" parent="1" vertex="1">
                    <mxGeometry x="1536" y="1430" width="120" height="60" as="geometry"/>
                </mxCell>
                <mxCell id="166" value="&lt;font style=&quot;font-size: 16px;&quot;&gt;获取&lt;font style=&quot;font-size: 16px;&quot;&gt;流程&lt;/font&gt;单&lt;/font&gt;" style="text;html=1;align=center;verticalAlign=middle;resizable=0;points=[];autosize=1;strokeColor=none;fillColor=none;" parent="1" vertex="1">
                    <mxGeometry x="1546" y="1445" width="100" height="30" as="geometry"/>
                </mxCell>
                <mxCell id="167" style="html=1;exitX=1;exitY=0.5;exitDx=0;exitDy=0;exitPerimeter=0;fontSize=16;entryX=1;entryY=0.5;entryDx=0;entryDy=0;entryPerimeter=0;strokeColor=default;rounded=1;endArrow=none;endFill=0;" parent="1" source="168" edge="1">
                    <mxGeometry relative="1" as="geometry">
                        <mxPoint x="1822" y="1570.5" as="targetPoint"/>
                    </mxGeometry>
                </mxCell>
                <mxCell id="168" value="" style="line;strokeWidth=2;html=1;labelBorderColor=none;fontSize=23;fillColor=default;strokeColor=#FFFFFF;" parent="1" vertex="1">
                    <mxGeometry x="1536" y="1530.5" width="371" height="10" as="geometry"/>
                </mxCell>
                <mxCell id="169" style="edgeStyle=none;shape=connector;rounded=1;html=1;exitX=1;exitY=0.5;exitDx=0;exitDy=0;exitPerimeter=0;labelBackgroundColor=default;strokeColor=default;fontFamily=Helvetica;fontSize=16;fontColor=default;endArrow=none;endFill=0;" parent="1" source="170" edge="1">
                    <mxGeometry relative="1" as="geometry">
                        <mxPoint x="1822" y="1570.5" as="targetPoint"/>
                    </mxGeometry>
                </mxCell>
                <mxCell id="170" value="" style="line;strokeWidth=2;html=1;labelBorderColor=none;fontSize=23;fillColor=default;strokeColor=#FFFFFF;" parent="1" vertex="1">
                    <mxGeometry x="1536" y="1600.5" width="371" height="10" as="geometry"/>
                </mxCell>
                <mxCell id="171" value="T" style="text;html=1;align=center;verticalAlign=middle;resizable=0;points=[];autosize=1;strokeColor=none;fillColor=none;fontSize=16;fontFamily=Helvetica;fontColor=default;" parent="1" vertex="1">
                    <mxGeometry x="1795" y="1538.5" width="30" height="30" as="geometry"/>
                </mxCell>
                <mxCell id="172" value="F" style="text;html=1;align=center;verticalAlign=middle;resizable=0;points=[];autosize=1;strokeColor=none;fillColor=none;fontSize=16;fontFamily=Helvetica;fontColor=default;" parent="1" vertex="1">
                    <mxGeometry x="1795" y="1575.5" width="30" height="30" as="geometry"/>
                </mxCell>
                <mxCell id="173" value="查询目标项目" style="rounded=0;whiteSpace=wrap;html=1;strokeColor=#FFFFFF;" parent="1" vertex="1">
                    <mxGeometry x="1907" y="1512.5" width="120" height="46" as="geometry"/>
                </mxCell>
                <mxCell id="174" value="" style="rounded=0;whiteSpace=wrap;html=1;strokeColor=#FFFFFF;" parent="1" vertex="1">
                    <mxGeometry x="1907" y="1581.5" width="120" height="46" as="geometry"/>
                </mxCell>
                <mxCell id="175" value="&lt;span style=&quot;font-size: 16px;&quot;&gt;不做处理&lt;/span&gt;" style="text;html=1;align=center;verticalAlign=middle;resizable=0;points=[];autosize=1;strokeColor=none;fillColor=none;" parent="1" vertex="1">
                    <mxGeometry x="1922" y="1590.5" width="90" height="30" as="geometry"/>
                </mxCell>
                <mxCell id="176" value="" style="rounded=0;whiteSpace=wrap;html=1;strokeColor=#FFFFFF;" parent="1" vertex="1">
                    <mxGeometry x="1536" y="1645" width="120" height="60" as="geometry"/>
                </mxCell>
                <mxCell id="177" value="&lt;span style=&quot;font-size: 16px;&quot;&gt;结束&lt;/span&gt;" style="text;html=1;align=center;verticalAlign=middle;resizable=0;points=[];autosize=1;strokeColor=none;fillColor=none;" parent="1" vertex="1">
                    <mxGeometry x="1566" y="1660" width="60" height="30" as="geometry"/>
                </mxCell>
                <mxCell id="178" value="" style="rounded=0;whiteSpace=wrap;html=1;strokeColor=#FFFFFF;" parent="1" vertex="1">
                    <mxGeometry x="1530" y="1895" width="120" height="60" as="geometry"/>
                </mxCell>
                <mxCell id="179" value="&lt;span style=&quot;font-size: 16px;&quot;&gt;查询目标项目&lt;/span&gt;" style="text;html=1;align=center;verticalAlign=middle;resizable=0;points=[];autosize=1;strokeColor=none;fillColor=none;" parent="1" vertex="1">
                    <mxGeometry x="1530" y="1910" width="120" height="30" as="geometry"/>
                </mxCell>
                <mxCell id="180" value="" style="shape=link;html=1;rounded=1;labelBackgroundColor=default;strokeColor=default;fontFamily=Helvetica;fontSize=16;fontColor=default;endArrow=none;endFill=0;strokeWidth=2;" parent="1" edge="1">
                    <mxGeometry width="100" relative="1" as="geometry">
                        <mxPoint x="1650" y="1928.6599999999999" as="sourcePoint"/>
                        <mxPoint x="1740" y="1929" as="targetPoint"/>
                    </mxGeometry>
                </mxCell>
                <mxCell id="181" value="def" style="text;html=1;align=center;verticalAlign=middle;resizable=0;points=[];autosize=1;strokeColor=none;fillColor=none;fontSize=16;fontFamily=Helvetica;fontColor=default;" parent="1" vertex="1">
                    <mxGeometry x="1670" y="1880" width="50" height="30" as="geometry"/>
                </mxCell>
                <mxCell id="182" value="" style="line;strokeWidth=2;html=1;labelBorderColor=none;fontSize=23;fillColor=#eeeeee;strokeColor=#FFFFFF;direction=south;" parent="1" vertex="1">
                    <mxGeometry x="1736" y="1770" width="10" height="250" as="geometry"/>
                </mxCell>
                <mxCell id="183" value="" style="rounded=0;whiteSpace=wrap;html=1;strokeColor=#FFFFFF;" parent="1" vertex="1">
                    <mxGeometry x="1742" y="1790" width="120" height="60" as="geometry"/>
                </mxCell>
                <mxCell id="184" value="&lt;span style=&quot;font-size: 16px;&quot;&gt;查询目标项目&lt;/span&gt;" style="text;html=1;align=center;verticalAlign=middle;resizable=0;points=[];autosize=1;strokeColor=none;fillColor=none;" parent="1" vertex="1">
                    <mxGeometry x="1736" y="1805" width="120" height="30" as="geometry"/>
                </mxCell>
                <mxCell id="185" style="html=1;exitX=1;exitY=0.5;exitDx=0;exitDy=0;exitPerimeter=0;fontSize=16;entryX=1;entryY=0.5;entryDx=0;entryDy=0;entryPerimeter=0;strokeColor=default;rounded=1;endArrow=none;endFill=0;" parent="1" source="186" edge="1">
                    <mxGeometry relative="1" as="geometry">
                        <mxPoint x="1918" y="1925.5" as="targetPoint"/>
                    </mxGeometry>
                </mxCell>
                <mxCell id="186" value="" style="line;strokeWidth=2;html=1;labelBorderColor=none;fontSize=23;fillColor=default;strokeColor=#FFFFFF;" parent="1" vertex="1">
                    <mxGeometry x="1742" y="1885.5" width="261" height="10" as="geometry"/>
                </mxCell>
                <mxCell id="187" style="edgeStyle=none;shape=connector;rounded=1;html=1;exitX=1;exitY=0.5;exitDx=0;exitDy=0;exitPerimeter=0;labelBackgroundColor=default;strokeColor=default;fontFamily=Helvetica;fontSize=16;fontColor=default;endArrow=none;endFill=0;" parent="1" source="188" edge="1">
                    <mxGeometry relative="1" as="geometry">
                        <mxPoint x="1918" y="1925.5" as="targetPoint"/>
                    </mxGeometry>
                </mxCell>
                <mxCell id="188" value="" style="line;strokeWidth=2;html=1;labelBorderColor=none;fontSize=23;fillColor=default;strokeColor=#FFFFFF;" parent="1" vertex="1">
                    <mxGeometry x="1742" y="1955.5" width="261" height="10" as="geometry"/>
                </mxCell>
                <mxCell id="189" value="T" style="text;html=1;align=center;verticalAlign=middle;resizable=0;points=[];autosize=1;strokeColor=none;fillColor=none;fontSize=16;fontFamily=Helvetica;fontColor=default;" parent="1" vertex="1">
                    <mxGeometry x="1891" y="1893.5" width="30" height="30" as="geometry"/>
                </mxCell>
                <mxCell id="190" value="F" style="text;html=1;align=center;verticalAlign=middle;resizable=0;points=[];autosize=1;strokeColor=none;fillColor=none;fontSize=16;fontFamily=Helvetica;fontColor=default;" parent="1" vertex="1">
                    <mxGeometry x="1891" y="1930.5" width="30" height="30" as="geometry"/>
                </mxCell>
                <mxCell id="191" value="" style="rounded=0;whiteSpace=wrap;html=1;strokeColor=#FFFFFF;" parent="1" vertex="1">
                    <mxGeometry x="2003" y="1867.5" width="120" height="46" as="geometry"/>
                </mxCell>
                <mxCell id="192" value="" style="rounded=0;whiteSpace=wrap;html=1;strokeColor=#FFFFFF;" parent="1" vertex="1">
                    <mxGeometry x="2003" y="1936.5" width="120" height="46" as="geometry"/>
                </mxCell>
                <mxCell id="193" value="&lt;span style=&quot;font-size: 16px;&quot;&gt;不做处理&lt;/span&gt;" style="text;html=1;align=center;verticalAlign=middle;resizable=0;points=[];autosize=1;strokeColor=none;fillColor=none;" parent="1" vertex="1">
                    <mxGeometry x="2018" y="1945.5" width="90" height="30" as="geometry"/>
                </mxCell>
                <mxCell id="194" value="&lt;span style=&quot;font-size: 16px;&quot;&gt;确认项目结束&lt;/span&gt;" style="text;html=1;align=center;verticalAlign=middle;resizable=0;points=[];autosize=1;strokeColor=none;fillColor=none;" parent="1" vertex="1">
                    <mxGeometry x="2003" y="1875.5" width="120" height="30" as="geometry"/>
                </mxCell>
                <mxCell id="195" value="" style="rounded=0;whiteSpace=wrap;html=1;strokeColor=#FFFFFF;" parent="1" vertex="1">
                    <mxGeometry x="1530" y="2145" width="120" height="60" as="geometry"/>
                </mxCell>
                <mxCell id="196" value="&lt;span style=&quot;font-size: 16px;&quot;&gt;确认项目结束&lt;/span&gt;" style="text;html=1;align=center;verticalAlign=middle;resizable=0;points=[];autosize=1;strokeColor=none;fillColor=none;" parent="1" vertex="1">
                    <mxGeometry x="1530" y="2160" width="120" height="30" as="geometry"/>
                </mxCell>
                <mxCell id="197" value="" style="shape=link;html=1;rounded=1;labelBackgroundColor=default;strokeColor=default;fontFamily=Helvetica;fontSize=16;fontColor=default;endArrow=none;endFill=0;strokeWidth=2;" parent="1" edge="1">
                    <mxGeometry width="100" relative="1" as="geometry">
                        <mxPoint x="1650" y="2178.66" as="sourcePoint"/>
                        <mxPoint x="1740" y="2179" as="targetPoint"/>
                    </mxGeometry>
                </mxCell>
                <mxCell id="198" value="def" style="text;html=1;align=center;verticalAlign=middle;resizable=0;points=[];autosize=1;strokeColor=none;fillColor=none;fontSize=16;fontFamily=Helvetica;fontColor=default;" parent="1" vertex="1">
                    <mxGeometry x="1670" y="2130" width="50" height="30" as="geometry"/>
                </mxCell>
                <mxCell id="199" value="" style="line;strokeWidth=2;html=1;labelBorderColor=none;fontSize=23;fillColor=#eeeeee;strokeColor=#FFFFFF;direction=south;" parent="1" vertex="1">
                    <mxGeometry x="1736" y="2070" width="10" height="200" as="geometry"/>
                </mxCell>
                <mxCell id="200" style="html=1;exitX=1;exitY=0.5;exitDx=0;exitDy=0;exitPerimeter=0;fontSize=16;entryX=1;entryY=0.5;entryDx=0;entryDy=0;entryPerimeter=0;strokeColor=default;rounded=1;endArrow=none;endFill=0;" parent="1" source="201" edge="1">
                    <mxGeometry relative="1" as="geometry">
                        <mxPoint x="1918" y="2175.5" as="targetPoint"/>
                    </mxGeometry>
                </mxCell>
                <mxCell id="201" value="" style="line;strokeWidth=2;html=1;labelBorderColor=none;fontSize=23;fillColor=default;strokeColor=#FFFFFF;" parent="1" vertex="1">
                    <mxGeometry x="1742" y="2135.5" width="261" height="10" as="geometry"/>
                </mxCell>
                <mxCell id="202" style="edgeStyle=none;shape=connector;rounded=1;html=1;exitX=1;exitY=0.5;exitDx=0;exitDy=0;exitPerimeter=0;labelBackgroundColor=default;strokeColor=default;fontFamily=Helvetica;fontSize=16;fontColor=default;endArrow=none;endFill=0;" parent="1" source="203" edge="1">
                    <mxGeometry relative="1" as="geometry">
                        <mxPoint x="1918" y="2175.5" as="targetPoint"/>
                    </mxGeometry>
                </mxCell>
                <mxCell id="203" value="" style="line;strokeWidth=2;html=1;labelBorderColor=none;fontSize=23;fillColor=default;strokeColor=#FFFFFF;" parent="1" vertex="1">
                    <mxGeometry x="1742" y="2205.5" width="261" height="10" as="geometry"/>
                </mxCell>
                <mxCell id="204" value="T" style="text;html=1;align=center;verticalAlign=middle;resizable=0;points=[];autosize=1;strokeColor=none;fillColor=none;fontSize=16;fontFamily=Helvetica;fontColor=default;" parent="1" vertex="1">
                    <mxGeometry x="1891" y="2143.5" width="30" height="30" as="geometry"/>
                </mxCell>
                <mxCell id="205" value="F" style="text;html=1;align=center;verticalAlign=middle;resizable=0;points=[];autosize=1;strokeColor=none;fillColor=none;fontSize=16;fontFamily=Helvetica;fontColor=default;" parent="1" vertex="1">
                    <mxGeometry x="1891" y="2180.5" width="30" height="30" as="geometry"/>
                </mxCell>
                <mxCell id="206" value="" style="rounded=0;whiteSpace=wrap;html=1;strokeColor=#FFFFFF;" parent="1" vertex="1">
                    <mxGeometry x="2003" y="2117.5" width="120" height="46" as="geometry"/>
                </mxCell>
                <mxCell id="207" value="" style="rounded=0;whiteSpace=wrap;html=1;strokeColor=#FFFFFF;" parent="1" vertex="1">
                    <mxGeometry x="2003" y="2186.5" width="147" height="46" as="geometry"/>
                </mxCell>
                <mxCell id="208" value="&lt;span style=&quot;font-size: 16px;&quot;&gt;确认项目已经结束&lt;/span&gt;" style="text;html=1;align=center;verticalAlign=middle;resizable=0;points=[];autosize=1;strokeColor=none;fillColor=none;" parent="1" vertex="1">
                    <mxGeometry x="2001.5" y="2195.5" width="150" height="30" as="geometry"/>
                </mxCell>
                <mxCell id="209" value="&lt;span style=&quot;font-size: 16px;&quot;&gt;不做处理&lt;/span&gt;" style="text;html=1;align=center;verticalAlign=middle;resizable=0;points=[];autosize=1;strokeColor=none;fillColor=none;" parent="1" vertex="1">
                    <mxGeometry x="2018" y="2125.5" width="90" height="30" as="geometry"/>
                </mxCell>
                <mxCell id="210" value="" style="line;strokeWidth=2;html=1;labelBorderColor=none;fontSize=23;fillColor=#eeeeee;strokeColor=#FFFFFF;direction=south;" vertex="1" parent="1">
                    <mxGeometry x="106" y="2560" width="10" height="340" as="geometry"/>
                </mxCell>
                <mxCell id="211" value="" style="rounded=0;whiteSpace=wrap;html=1;strokeColor=#FFFFFF;" vertex="1" parent="1">
                    <mxGeometry x="112" y="2590" width="120" height="60" as="geometry"/>
                </mxCell>
                <mxCell id="212" value="&lt;span style=&quot;font-size: 16px;&quot;&gt;查询流程&lt;/span&gt;" style="text;html=1;align=center;verticalAlign=middle;resizable=0;points=[];autosize=1;strokeColor=none;fillColor=none;" vertex="1" parent="1">
                    <mxGeometry x="127" y="2605" width="90" height="30" as="geometry"/>
                </mxCell>
                <mxCell id="213" style="html=1;exitX=1;exitY=0.5;exitDx=0;exitDy=0;exitPerimeter=0;fontSize=16;entryX=1;entryY=0.5;entryDx=0;entryDy=0;entryPerimeter=0;strokeColor=default;rounded=1;endArrow=none;endFill=0;" edge="1" parent="1" source="214">
                    <mxGeometry relative="1" as="geometry">
                        <mxPoint x="398" y="2730.5" as="targetPoint"/>
                    </mxGeometry>
                </mxCell>
                <mxCell id="214" value="" style="line;strokeWidth=2;html=1;labelBorderColor=none;fontSize=23;fillColor=default;strokeColor=#FFFFFF;" vertex="1" parent="1">
                    <mxGeometry x="112" y="2690.5" width="371" height="10" as="geometry"/>
                </mxCell>
                <mxCell id="215" style="edgeStyle=none;shape=connector;rounded=1;html=1;exitX=1;exitY=0.5;exitDx=0;exitDy=0;exitPerimeter=0;labelBackgroundColor=default;strokeColor=default;fontFamily=Helvetica;fontSize=16;fontColor=default;endArrow=none;endFill=0;" edge="1" parent="1" source="216">
                    <mxGeometry relative="1" as="geometry">
                        <mxPoint x="398" y="2730.5" as="targetPoint"/>
                    </mxGeometry>
                </mxCell>
                <mxCell id="216" value="" style="line;strokeWidth=2;html=1;labelBorderColor=none;fontSize=23;fillColor=default;strokeColor=#FFFFFF;" vertex="1" parent="1">
                    <mxGeometry x="112" y="2760.5" width="371" height="10" as="geometry"/>
                </mxCell>
                <mxCell id="217" value="T" style="text;html=1;align=center;verticalAlign=middle;resizable=0;points=[];autosize=1;strokeColor=none;fillColor=none;fontSize=16;fontFamily=Helvetica;fontColor=default;" vertex="1" parent="1">
                    <mxGeometry x="371" y="2698.5" width="30" height="30" as="geometry"/>
                </mxCell>
                <mxCell id="218" value="F" style="text;html=1;align=center;verticalAlign=middle;resizable=0;points=[];autosize=1;strokeColor=none;fillColor=none;fontSize=16;fontFamily=Helvetica;fontColor=default;" vertex="1" parent="1">
                    <mxGeometry x="371" y="2735.5" width="30" height="30" as="geometry"/>
                </mxCell>
                <mxCell id="219" value="" style="rounded=0;whiteSpace=wrap;html=1;strokeColor=#FFFFFF;" vertex="1" parent="1">
                    <mxGeometry x="483" y="2672.5" width="120" height="46" as="geometry"/>
                </mxCell>
                <mxCell id="220" value="" style="rounded=0;whiteSpace=wrap;html=1;strokeColor=#FFFFFF;" vertex="1" parent="1">
                    <mxGeometry x="483" y="2741.5" width="120" height="46" as="geometry"/>
                </mxCell>
                <mxCell id="221" value="&lt;span style=&quot;font-size: 16px;&quot;&gt;查询目标项目&lt;/span&gt;" style="text;html=1;align=center;verticalAlign=middle;resizable=0;points=[];autosize=1;strokeColor=none;fillColor=none;" vertex="1" parent="1">
                    <mxGeometry x="483" y="2680.5" width="120" height="30" as="geometry"/>
                </mxCell>
                <mxCell id="222" value="&lt;span style=&quot;font-size: 16px;&quot;&gt;不做处理&lt;/span&gt;" style="text;html=1;align=center;verticalAlign=middle;resizable=0;points=[];autosize=1;strokeColor=none;fillColor=none;" vertex="1" parent="1">
                    <mxGeometry x="498" y="2750.5" width="90" height="30" as="geometry"/>
                </mxCell>
                <mxCell id="223" value="" style="rounded=0;whiteSpace=wrap;html=1;strokeColor=#FFFFFF;" vertex="1" parent="1">
                    <mxGeometry x="112" y="2805" width="120" height="60" as="geometry"/>
                </mxCell>
                <mxCell id="224" value="&lt;span style=&quot;font-size: 16px;&quot;&gt;结束&lt;/span&gt;" style="text;html=1;align=center;verticalAlign=middle;resizable=0;points=[];autosize=1;strokeColor=none;fillColor=none;" vertex="1" parent="1">
                    <mxGeometry x="142" y="2820" width="60" height="30" as="geometry"/>
                </mxCell>
                <mxCell id="226" value="&lt;span style=&quot;font-size: 16px;&quot;&gt;有该流程单么&lt;/span&gt;" style="text;html=1;align=center;verticalAlign=middle;resizable=0;points=[];autosize=1;strokeColor=none;fillColor=none;" vertex="1" parent="1">
                    <mxGeometry x="231.5" y="1555" width="120" height="30" as="geometry"/>
                </mxCell>
                <mxCell id="227" value="&lt;span style=&quot;font-size: 16px;&quot;&gt;该流程存在么&lt;/span&gt;" style="text;html=1;align=center;verticalAlign=middle;resizable=0;points=[];autosize=1;strokeColor=none;fillColor=none;" vertex="1" parent="1">
                    <mxGeometry x="881.5" y="1555" width="120" height="30" as="geometry"/>
                </mxCell>
                <mxCell id="229" value="&lt;span style=&quot;font-size: 16px;&quot;&gt;该项目存在么&lt;/span&gt;&lt;span style=&quot;color: rgba(0, 0, 0, 0); font-family: monospace; font-size: 0px; text-align: start;&quot;&gt;%3CmxGraphModel%3E%3Croot%3E%3CmxCell%20id%3D%220%22%2F%3E%3CmxCell%20id%3D%221%22%20parent%3D%220%22%2F%3E%3CmxCell%20id%3D%222%22%20value%3D%22%26lt%3Bspan%20style%3D%26quot%3Bfont-size%3A%2016px%3B%26quot%3B%26gt%3B%E8%AF%A5%E6%B5%81%E7%A8%8B%E5%AD%98%E5%9C%A8%E4%B9%88%26lt%3B%2Fspan%26gt%3B%22%20style%3D%22text%3Bhtml%3D1%3Balign%3Dcenter%3BverticalAlign%3Dmiddle%3Bresizable%3D0%3Bpoints%3D%5B%5D%3Bautosize%3D1%3BstrokeColor%3Dnone%3BfillColor%3Dnone%3B%22%20vertex%3D%221%22%20parent%3D%221%22%3E%3CmxGeometry%20x%3D%22881.5%22%20y%3D%221555%22%20width%3D%22120%22%20height%3D%2230%22%20as%3D%22geometry%22%2F%3E%3C%2FmxCell%3E%3C%2Froot%3E%3C%2FmxGraphModel%3E&lt;/span&gt;" style="text;html=1;align=center;verticalAlign=middle;resizable=0;points=[];autosize=1;strokeColor=none;fillColor=none;" vertex="1" parent="1">
                    <mxGeometry x="980" y="1910" width="120" height="30" as="geometry"/>
                </mxCell>
                <mxCell id="230" value="&lt;span style=&quot;font-size: 16px;&quot;&gt;该项目确认开始了么&lt;/span&gt;" style="text;html=1;align=center;verticalAlign=middle;resizable=0;points=[];autosize=1;strokeColor=none;fillColor=none;" vertex="1" parent="1">
                    <mxGeometry x="955" y="2160" width="170" height="30" as="geometry"/>
                </mxCell>
                <mxCell id="231" value="&lt;span style=&quot;font-size: 16px;&quot;&gt;该流程存在么&lt;/span&gt;" style="text;html=1;align=center;verticalAlign=middle;resizable=0;points=[];autosize=1;strokeColor=none;fillColor=none;" vertex="1" parent="1">
                    <mxGeometry x="1656" y="1555" width="120" height="30" as="geometry"/>
                </mxCell>
                <mxCell id="232" value="&lt;span style=&quot;font-size: 16px;&quot;&gt;该项目存在么&lt;/span&gt;&lt;span style=&quot;color: rgba(0, 0, 0, 0); font-family: monospace; font-size: 0px; text-align: start;&quot;&gt;%3CmxGraphModel%3E%3Croot%3E%3CmxCell%20id%3D%220%22%2F%3E%3CmxCell%20id%3D%221%22%20parent%3D%220%22%2F%3E%3CmxCell%20id%3D%222%22%20value%3D%22%26lt%3Bspan%20style%3D%26quot%3Bfont-size%3A%2016px%3B%26quot%3B%26gt%3B%E8%AF%A5%E6%B5%81%E7%A8%8B%E5%AD%98%E5%9C%A8%E4%B9%88%26lt%3B%2Fspan%26gt%3B%22%20style%3D%22text%3Bhtml%3D1%3Balign%3Dcenter%3BverticalAlign%3Dmiddle%3Bresizable%3D0%3Bpoints%3D%5B%5D%3Bautosize%3D1%3BstrokeColor%3Dnone%3BfillColor%3Dnone%3B%22%20vertex%3D%221%22%20parent%3D%221%22%3E%3CmxGeometry%20x%3D%22881.5%22%20y%3D%221555%22%20width%3D%22120%22%20height%3D%2230%22%20as%3D%22geometry%22%2F%3E%3C%2FmxCell%3E%3C%2Froot%3E%3C%2FmxGraphModel%3E&lt;/span&gt;" style="text;html=1;align=center;verticalAlign=middle;resizable=0;points=[];autosize=1;strokeColor=none;fillColor=none;" vertex="1" parent="1">
                    <mxGeometry x="1760" y="1910" width="120" height="30" as="geometry"/>
                </mxCell>
                <mxCell id="233" value="&lt;span style=&quot;font-size: 16px;&quot;&gt;该项目确认结束了么&lt;/span&gt;" style="text;html=1;align=center;verticalAlign=middle;resizable=0;points=[];autosize=1;strokeColor=none;fillColor=none;" vertex="1" parent="1">
                    <mxGeometry x="1735" y="2160" width="170" height="30" as="geometry"/>
                </mxCell>
                <mxCell id="234" value="&lt;span style=&quot;font-size: 16px;&quot;&gt;该流程存在么&lt;/span&gt;" style="text;html=1;align=center;verticalAlign=middle;resizable=0;points=[];autosize=1;strokeColor=none;fillColor=none;" vertex="1" parent="1">
                    <mxGeometry x="196" y="2715" width="120" height="30" as="geometry"/>
                </mxCell>
                <mxCell id="235" value="" style="rounded=0;whiteSpace=wrap;html=1;strokeColor=#FFFFFF;" vertex="1" parent="1">
                    <mxGeometry x="112" y="3115" width="120" height="60" as="geometry"/>
                </mxCell>
                <mxCell id="236" value="&lt;span style=&quot;font-size: 16px;&quot;&gt;查询目标项目&lt;/span&gt;" style="text;html=1;align=center;verticalAlign=middle;resizable=0;points=[];autosize=1;strokeColor=none;fillColor=none;" vertex="1" parent="1">
                    <mxGeometry x="112" y="3130" width="120" height="30" as="geometry"/>
                </mxCell>
                <mxCell id="237" value="" style="shape=link;html=1;rounded=1;labelBackgroundColor=default;strokeColor=default;fontFamily=Helvetica;fontSize=16;fontColor=default;endArrow=none;endFill=0;strokeWidth=2;" edge="1" parent="1">
                    <mxGeometry width="100" relative="1" as="geometry">
                        <mxPoint x="232" y="3148.66" as="sourcePoint"/>
                        <mxPoint x="322" y="3149" as="targetPoint"/>
                    </mxGeometry>
                </mxCell>
                <mxCell id="238" value="def" style="text;html=1;align=center;verticalAlign=middle;resizable=0;points=[];autosize=1;strokeColor=none;fillColor=none;fontSize=16;fontFamily=Helvetica;fontColor=default;" vertex="1" parent="1">
                    <mxGeometry x="252" y="3100" width="50" height="30" as="geometry"/>
                </mxCell>
                <mxCell id="239" value="" style="line;strokeWidth=2;html=1;labelBorderColor=none;fontSize=23;fillColor=#eeeeee;strokeColor=#FFFFFF;direction=south;" vertex="1" parent="1">
                    <mxGeometry x="318" y="2990" width="10" height="250" as="geometry"/>
                </mxCell>
                <mxCell id="240" value="" style="rounded=0;whiteSpace=wrap;html=1;strokeColor=#FFFFFF;" vertex="1" parent="1">
                    <mxGeometry x="324" y="3010" width="120" height="60" as="geometry"/>
                </mxCell>
                <mxCell id="241" value="&lt;span style=&quot;font-size: 16px;&quot;&gt;查询目标项目&lt;/span&gt;" style="text;html=1;align=center;verticalAlign=middle;resizable=0;points=[];autosize=1;strokeColor=none;fillColor=none;" vertex="1" parent="1">
                    <mxGeometry x="318" y="3025" width="120" height="30" as="geometry"/>
                </mxCell>
                <mxCell id="242" style="html=1;exitX=1;exitY=0.5;exitDx=0;exitDy=0;exitPerimeter=0;fontSize=16;entryX=1;entryY=0.5;entryDx=0;entryDy=0;entryPerimeter=0;strokeColor=default;rounded=1;endArrow=none;endFill=0;" edge="1" parent="1" source="243">
                    <mxGeometry relative="1" as="geometry">
                        <mxPoint x="500" y="3145.5" as="targetPoint"/>
                    </mxGeometry>
                </mxCell>
                <mxCell id="243" value="" style="line;strokeWidth=2;html=1;labelBorderColor=none;fontSize=23;fillColor=default;strokeColor=#FFFFFF;" vertex="1" parent="1">
                    <mxGeometry x="324" y="3105.5" width="261" height="10" as="geometry"/>
                </mxCell>
                <mxCell id="244" style="edgeStyle=none;shape=connector;rounded=1;html=1;exitX=1;exitY=0.5;exitDx=0;exitDy=0;exitPerimeter=0;labelBackgroundColor=default;strokeColor=default;fontFamily=Helvetica;fontSize=16;fontColor=default;endArrow=none;endFill=0;" edge="1" parent="1" source="245">
                    <mxGeometry relative="1" as="geometry">
                        <mxPoint x="500" y="3145.5" as="targetPoint"/>
                    </mxGeometry>
                </mxCell>
                <mxCell id="245" value="" style="line;strokeWidth=2;html=1;labelBorderColor=none;fontSize=23;fillColor=default;strokeColor=#FFFFFF;" vertex="1" parent="1">
                    <mxGeometry x="324" y="3175.5" width="261" height="10" as="geometry"/>
                </mxCell>
                <mxCell id="246" value="T" style="text;html=1;align=center;verticalAlign=middle;resizable=0;points=[];autosize=1;strokeColor=none;fillColor=none;fontSize=16;fontFamily=Helvetica;fontColor=default;" vertex="1" parent="1">
                    <mxGeometry x="473" y="3113.5" width="30" height="30" as="geometry"/>
                </mxCell>
                <mxCell id="247" value="F" style="text;html=1;align=center;verticalAlign=middle;resizable=0;points=[];autosize=1;strokeColor=none;fillColor=none;fontSize=16;fontFamily=Helvetica;fontColor=default;" vertex="1" parent="1">
                    <mxGeometry x="473" y="3150.5" width="30" height="30" as="geometry"/>
                </mxCell>
                <mxCell id="248" value="" style="rounded=0;whiteSpace=wrap;html=1;strokeColor=#FFFFFF;" vertex="1" parent="1">
                    <mxGeometry x="585" y="3087.5" width="120" height="46" as="geometry"/>
                </mxCell>
                <mxCell id="249" value="" style="rounded=0;whiteSpace=wrap;html=1;strokeColor=#FFFFFF;" vertex="1" parent="1">
                    <mxGeometry x="585" y="3156.5" width="120" height="46" as="geometry"/>
                </mxCell>
                <mxCell id="250" value="&lt;span style=&quot;font-size: 16px;&quot;&gt;不做处理&lt;/span&gt;" style="text;html=1;align=center;verticalAlign=middle;resizable=0;points=[];autosize=1;strokeColor=none;fillColor=none;" vertex="1" parent="1">
                    <mxGeometry x="600" y="3165.5" width="90" height="30" as="geometry"/>
                </mxCell>
                <mxCell id="251" value="&lt;span style=&quot;font-size: 16px;&quot;&gt;确认项目开始&lt;/span&gt;" style="text;html=1;align=center;verticalAlign=middle;resizable=0;points=[];autosize=1;strokeColor=none;fillColor=none;" vertex="1" parent="1">
                    <mxGeometry x="585" y="3095.5" width="120" height="30" as="geometry"/>
                </mxCell>
                <mxCell id="252" value="&lt;span style=&quot;font-size: 16px;&quot;&gt;该项目存在么&lt;/span&gt;&lt;span style=&quot;color: rgba(0, 0, 0, 0); font-family: monospace; font-size: 0px; text-align: start;&quot;&gt;%3CmxGraphModel%3E%3Croot%3E%3CmxCell%20id%3D%220%22%2F%3E%3CmxCell%20id%3D%221%22%20parent%3D%220%22%2F%3E%3CmxCell%20id%3D%222%22%20value%3D%22%26lt%3Bspan%20style%3D%26quot%3Bfont-size%3A%2016px%3B%26quot%3B%26gt%3B%E8%AF%A5%E6%B5%81%E7%A8%8B%E5%AD%98%E5%9C%A8%E4%B9%88%26lt%3B%2Fspan%26gt%3B%22%20style%3D%22text%3Bhtml%3D1%3Balign%3Dcenter%3BverticalAlign%3Dmiddle%3Bresizable%3D0%3Bpoints%3D%5B%5D%3Bautosize%3D1%3BstrokeColor%3Dnone%3BfillColor%3Dnone%3B%22%20vertex%3D%221%22%20parent%3D%221%22%3E%3CmxGeometry%20x%3D%22881.5%22%20y%3D%221555%22%20width%3D%22120%22%20height%3D%2230%22%20as%3D%22geometry%22%2F%3E%3C%2FmxCell%3E%3C%2Froot%3E%3C%2FmxGraphModel%3E&lt;/span&gt;" style="text;html=1;align=center;verticalAlign=middle;resizable=0;points=[];autosize=1;strokeColor=none;fillColor=none;" vertex="1" parent="1">
                    <mxGeometry x="342" y="3130" width="120" height="30" as="geometry"/>
                </mxCell>
                <mxCell id="253" value="" style="rounded=0;whiteSpace=wrap;html=1;strokeColor=#FFFFFF;" vertex="1" parent="1">
                    <mxGeometry x="110" y="3415" width="120" height="60" as="geometry"/>
                </mxCell>
                <mxCell id="254" value="&lt;span style=&quot;font-size: 16px;&quot;&gt;确认项目开始&lt;/span&gt;" style="text;html=1;align=center;verticalAlign=middle;resizable=0;points=[];autosize=1;strokeColor=none;fillColor=none;" vertex="1" parent="1">
                    <mxGeometry x="110" y="3430" width="120" height="30" as="geometry"/>
                </mxCell>
                <mxCell id="255" value="" style="shape=link;html=1;rounded=1;labelBackgroundColor=default;strokeColor=default;fontFamily=Helvetica;fontSize=16;fontColor=default;endArrow=none;endFill=0;strokeWidth=2;" edge="1" parent="1">
                    <mxGeometry width="100" relative="1" as="geometry">
                        <mxPoint x="230" y="3448.66" as="sourcePoint"/>
                        <mxPoint x="320" y="3449" as="targetPoint"/>
                    </mxGeometry>
                </mxCell>
                <mxCell id="256" value="def" style="text;html=1;align=center;verticalAlign=middle;resizable=0;points=[];autosize=1;strokeColor=none;fillColor=none;fontSize=16;fontFamily=Helvetica;fontColor=default;" vertex="1" parent="1">
                    <mxGeometry x="250" y="3400" width="50" height="30" as="geometry"/>
                </mxCell>
                <mxCell id="257" value="" style="line;strokeWidth=2;html=1;labelBorderColor=none;fontSize=23;fillColor=#eeeeee;strokeColor=#FFFFFF;direction=south;" vertex="1" parent="1">
                    <mxGeometry x="316" y="3340" width="10" height="200" as="geometry"/>
                </mxCell>
                <mxCell id="258" style="html=1;exitX=1;exitY=0.5;exitDx=0;exitDy=0;exitPerimeter=0;fontSize=16;entryX=1;entryY=0.5;entryDx=0;entryDy=0;entryPerimeter=0;strokeColor=default;rounded=1;endArrow=none;endFill=0;" edge="1" parent="1" source="259">
                    <mxGeometry relative="1" as="geometry">
                        <mxPoint x="498" y="3445.5" as="targetPoint"/>
                    </mxGeometry>
                </mxCell>
                <mxCell id="259" value="" style="line;strokeWidth=2;html=1;labelBorderColor=none;fontSize=23;fillColor=default;strokeColor=#FFFFFF;" vertex="1" parent="1">
                    <mxGeometry x="322" y="3405.5" width="261" height="10" as="geometry"/>
                </mxCell>
                <mxCell id="260" style="edgeStyle=none;shape=connector;rounded=1;html=1;exitX=1;exitY=0.5;exitDx=0;exitDy=0;exitPerimeter=0;labelBackgroundColor=default;strokeColor=default;fontFamily=Helvetica;fontSize=16;fontColor=default;endArrow=none;endFill=0;" edge="1" parent="1" source="261">
                    <mxGeometry relative="1" as="geometry">
                        <mxPoint x="498" y="3445.5" as="targetPoint"/>
                    </mxGeometry>
                </mxCell>
                <mxCell id="261" value="" style="line;strokeWidth=2;html=1;labelBorderColor=none;fontSize=23;fillColor=default;strokeColor=#FFFFFF;" vertex="1" parent="1">
                    <mxGeometry x="322" y="3475.5" width="261" height="10" as="geometry"/>
                </mxCell>
                <mxCell id="262" value="T" style="text;html=1;align=center;verticalAlign=middle;resizable=0;points=[];autosize=1;strokeColor=none;fillColor=none;fontSize=16;fontFamily=Helvetica;fontColor=default;" vertex="1" parent="1">
                    <mxGeometry x="471" y="3413.5" width="30" height="30" as="geometry"/>
                </mxCell>
                <mxCell id="263" value="F" style="text;html=1;align=center;verticalAlign=middle;resizable=0;points=[];autosize=1;strokeColor=none;fillColor=none;fontSize=16;fontFamily=Helvetica;fontColor=default;" vertex="1" parent="1">
                    <mxGeometry x="471" y="3450.5" width="30" height="30" as="geometry"/>
                </mxCell>
                <mxCell id="264" value="" style="rounded=0;whiteSpace=wrap;html=1;strokeColor=#FFFFFF;" vertex="1" parent="1">
                    <mxGeometry x="583" y="3387.5" width="120" height="46" as="geometry"/>
                </mxCell>
                <mxCell id="265" value="" style="rounded=0;whiteSpace=wrap;html=1;strokeColor=#FFFFFF;" vertex="1" parent="1">
                    <mxGeometry x="583" y="3456.5" width="147" height="46" as="geometry"/>
                </mxCell>
                <mxCell id="266" value="&lt;span style=&quot;font-size: 16px;&quot;&gt;开始该项目&lt;/span&gt;" style="text;html=1;align=center;verticalAlign=middle;resizable=0;points=[];autosize=1;strokeColor=none;fillColor=none;" vertex="1" parent="1">
                    <mxGeometry x="606.5" y="3465.5" width="100" height="30" as="geometry"/>
                </mxCell>
                <mxCell id="267" value="&lt;span style=&quot;font-size: 16px;&quot;&gt;不做处理&lt;/span&gt;" style="text;html=1;align=center;verticalAlign=middle;resizable=0;points=[];autosize=1;strokeColor=none;fillColor=none;" vertex="1" parent="1">
                    <mxGeometry x="598" y="3395.5" width="90" height="30" as="geometry"/>
                </mxCell>
                <mxCell id="268" value="&lt;span style=&quot;font-size: 16px;&quot;&gt;该项目未开始么&lt;/span&gt;" style="text;html=1;align=center;verticalAlign=middle;resizable=0;points=[];autosize=1;strokeColor=none;fillColor=none;" vertex="1" parent="1">
                    <mxGeometry x="330" y="3430" width="140" height="30" as="geometry"/>
                </mxCell>
                <mxCell id="269" value="" style="line;strokeWidth=2;html=1;labelBorderColor=none;fontSize=23;fillColor=#eeeeee;strokeColor=#FFFFFF;direction=south;" vertex="1" parent="1">
                    <mxGeometry x="922" y="2560" width="10" height="340" as="geometry"/>
                </mxCell>
                <mxCell id="270" value="" style="rounded=0;whiteSpace=wrap;html=1;strokeColor=#FFFFFF;" vertex="1" parent="1">
                    <mxGeometry x="928" y="2590" width="120" height="60" as="geometry"/>
                </mxCell>
                <mxCell id="271" value="&lt;span style=&quot;font-size: 16px;&quot;&gt;查询流程&lt;/span&gt;" style="text;html=1;align=center;verticalAlign=middle;resizable=0;points=[];autosize=1;strokeColor=none;fillColor=none;" vertex="1" parent="1">
                    <mxGeometry x="943" y="2605" width="90" height="30" as="geometry"/>
                </mxCell>
                <mxCell id="272" style="html=1;exitX=1;exitY=0.5;exitDx=0;exitDy=0;exitPerimeter=0;fontSize=16;entryX=1;entryY=0.5;entryDx=0;entryDy=0;entryPerimeter=0;strokeColor=default;rounded=1;endArrow=none;endFill=0;" edge="1" parent="1" source="273">
                    <mxGeometry relative="1" as="geometry">
                        <mxPoint x="1214" y="2730.5" as="targetPoint"/>
                    </mxGeometry>
                </mxCell>
                <mxCell id="273" value="" style="line;strokeWidth=2;html=1;labelBorderColor=none;fontSize=23;fillColor=default;strokeColor=#FFFFFF;" vertex="1" parent="1">
                    <mxGeometry x="928" y="2690.5" width="371" height="10" as="geometry"/>
                </mxCell>
                <mxCell id="274" style="edgeStyle=none;shape=connector;rounded=1;html=1;exitX=1;exitY=0.5;exitDx=0;exitDy=0;exitPerimeter=0;labelBackgroundColor=default;strokeColor=default;fontFamily=Helvetica;fontSize=16;fontColor=default;endArrow=none;endFill=0;" edge="1" parent="1" source="275">
                    <mxGeometry relative="1" as="geometry">
                        <mxPoint x="1214" y="2730.5" as="targetPoint"/>
                    </mxGeometry>
                </mxCell>
                <mxCell id="275" value="" style="line;strokeWidth=2;html=1;labelBorderColor=none;fontSize=23;fillColor=default;strokeColor=#FFFFFF;" vertex="1" parent="1">
                    <mxGeometry x="928" y="2760.5" width="371" height="10" as="geometry"/>
                </mxCell>
                <mxCell id="276" value="T" style="text;html=1;align=center;verticalAlign=middle;resizable=0;points=[];autosize=1;strokeColor=none;fillColor=none;fontSize=16;fontFamily=Helvetica;fontColor=default;" vertex="1" parent="1">
                    <mxGeometry x="1187" y="2698.5" width="30" height="30" as="geometry"/>
                </mxCell>
                <mxCell id="277" value="F" style="text;html=1;align=center;verticalAlign=middle;resizable=0;points=[];autosize=1;strokeColor=none;fillColor=none;fontSize=16;fontFamily=Helvetica;fontColor=default;" vertex="1" parent="1">
                    <mxGeometry x="1187" y="2735.5" width="30" height="30" as="geometry"/>
                </mxCell>
                <mxCell id="278" value="" style="rounded=0;whiteSpace=wrap;html=1;strokeColor=#FFFFFF;" vertex="1" parent="1">
                    <mxGeometry x="1299" y="2672.5" width="120" height="46" as="geometry"/>
                </mxCell>
                <mxCell id="279" value="" style="rounded=0;whiteSpace=wrap;html=1;strokeColor=#FFFFFF;" vertex="1" parent="1">
                    <mxGeometry x="1299" y="2741.5" width="120" height="46" as="geometry"/>
                </mxCell>
                <mxCell id="280" value="&lt;span style=&quot;font-size: 16px;&quot;&gt;查询目标项目&lt;/span&gt;" style="text;html=1;align=center;verticalAlign=middle;resizable=0;points=[];autosize=1;strokeColor=none;fillColor=none;" vertex="1" parent="1">
                    <mxGeometry x="1299" y="2680.5" width="120" height="30" as="geometry"/>
                </mxCell>
                <mxCell id="281" value="&lt;span style=&quot;font-size: 16px;&quot;&gt;不做处理&lt;/span&gt;" style="text;html=1;align=center;verticalAlign=middle;resizable=0;points=[];autosize=1;strokeColor=none;fillColor=none;" vertex="1" parent="1">
                    <mxGeometry x="1314" y="2750.5" width="90" height="30" as="geometry"/>
                </mxCell>
                <mxCell id="282" value="" style="rounded=0;whiteSpace=wrap;html=1;strokeColor=#FFFFFF;" vertex="1" parent="1">
                    <mxGeometry x="928" y="2805" width="120" height="60" as="geometry"/>
                </mxCell>
                <mxCell id="283" value="&lt;span style=&quot;font-size: 16px;&quot;&gt;结束&lt;/span&gt;" style="text;html=1;align=center;verticalAlign=middle;resizable=0;points=[];autosize=1;strokeColor=none;fillColor=none;" vertex="1" parent="1">
                    <mxGeometry x="958" y="2820" width="60" height="30" as="geometry"/>
                </mxCell>
                <mxCell id="284" value="&lt;span style=&quot;font-size: 16px;&quot;&gt;该流程存在么&lt;/span&gt;" style="text;html=1;align=center;verticalAlign=middle;resizable=0;points=[];autosize=1;strokeColor=none;fillColor=none;" vertex="1" parent="1">
                    <mxGeometry x="1012" y="2715" width="120" height="30" as="geometry"/>
                </mxCell>
                <mxCell id="285" value="" style="rounded=0;whiteSpace=wrap;html=1;strokeColor=#FFFFFF;" vertex="1" parent="1">
                    <mxGeometry x="928" y="3115" width="120" height="60" as="geometry"/>
                </mxCell>
                <mxCell id="286" value="&lt;span style=&quot;font-size: 16px;&quot;&gt;查询目标项目&lt;/span&gt;" style="text;html=1;align=center;verticalAlign=middle;resizable=0;points=[];autosize=1;strokeColor=none;fillColor=none;" vertex="1" parent="1">
                    <mxGeometry x="928" y="3130" width="120" height="30" as="geometry"/>
                </mxCell>
                <mxCell id="287" value="" style="shape=link;html=1;rounded=1;labelBackgroundColor=default;strokeColor=default;fontFamily=Helvetica;fontSize=16;fontColor=default;endArrow=none;endFill=0;strokeWidth=2;" edge="1" parent="1">
                    <mxGeometry width="100" relative="1" as="geometry">
                        <mxPoint x="1048" y="3148.66" as="sourcePoint"/>
                        <mxPoint x="1138" y="3149" as="targetPoint"/>
                    </mxGeometry>
                </mxCell>
                <mxCell id="288" value="def" style="text;html=1;align=center;verticalAlign=middle;resizable=0;points=[];autosize=1;strokeColor=none;fillColor=none;fontSize=16;fontFamily=Helvetica;fontColor=default;" vertex="1" parent="1">
                    <mxGeometry x="1068" y="3100" width="50" height="30" as="geometry"/>
                </mxCell>
                <mxCell id="289" value="" style="line;strokeWidth=2;html=1;labelBorderColor=none;fontSize=23;fillColor=#eeeeee;strokeColor=#FFFFFF;direction=south;" vertex="1" parent="1">
                    <mxGeometry x="1134" y="2990" width="10" height="250" as="geometry"/>
                </mxCell>
                <mxCell id="290" value="" style="rounded=0;whiteSpace=wrap;html=1;strokeColor=#FFFFFF;" vertex="1" parent="1">
                    <mxGeometry x="1140" y="3010" width="120" height="60" as="geometry"/>
                </mxCell>
                <mxCell id="291" value="&lt;span style=&quot;font-size: 16px;&quot;&gt;查询目标项目&lt;/span&gt;" style="text;html=1;align=center;verticalAlign=middle;resizable=0;points=[];autosize=1;strokeColor=none;fillColor=none;" vertex="1" parent="1">
                    <mxGeometry x="1134" y="3025" width="120" height="30" as="geometry"/>
                </mxCell>
                <mxCell id="292" style="html=1;exitX=1;exitY=0.5;exitDx=0;exitDy=0;exitPerimeter=0;fontSize=16;entryX=1;entryY=0.5;entryDx=0;entryDy=0;entryPerimeter=0;strokeColor=default;rounded=1;endArrow=none;endFill=0;" edge="1" parent="1" source="293">
                    <mxGeometry relative="1" as="geometry">
                        <mxPoint x="1316" y="3145.5" as="targetPoint"/>
                    </mxGeometry>
                </mxCell>
                <mxCell id="293" value="" style="line;strokeWidth=2;html=1;labelBorderColor=none;fontSize=23;fillColor=default;strokeColor=#FFFFFF;" vertex="1" parent="1">
                    <mxGeometry x="1140" y="3105.5" width="261" height="10" as="geometry"/>
                </mxCell>
                <mxCell id="294" style="edgeStyle=none;shape=connector;rounded=1;html=1;exitX=1;exitY=0.5;exitDx=0;exitDy=0;exitPerimeter=0;labelBackgroundColor=default;strokeColor=default;fontFamily=Helvetica;fontSize=16;fontColor=default;endArrow=none;endFill=0;" edge="1" parent="1" source="295">
                    <mxGeometry relative="1" as="geometry">
                        <mxPoint x="1316" y="3145.5" as="targetPoint"/>
                    </mxGeometry>
                </mxCell>
                <mxCell id="295" value="" style="line;strokeWidth=2;html=1;labelBorderColor=none;fontSize=23;fillColor=default;strokeColor=#FFFFFF;" vertex="1" parent="1">
                    <mxGeometry x="1140" y="3175.5" width="261" height="10" as="geometry"/>
                </mxCell>
                <mxCell id="296" value="T" style="text;html=1;align=center;verticalAlign=middle;resizable=0;points=[];autosize=1;strokeColor=none;fillColor=none;fontSize=16;fontFamily=Helvetica;fontColor=default;" vertex="1" parent="1">
                    <mxGeometry x="1289" y="3113.5" width="30" height="30" as="geometry"/>
                </mxCell>
                <mxCell id="297" value="F" style="text;html=1;align=center;verticalAlign=middle;resizable=0;points=[];autosize=1;strokeColor=none;fillColor=none;fontSize=16;fontFamily=Helvetica;fontColor=default;" vertex="1" parent="1">
                    <mxGeometry x="1289" y="3150.5" width="30" height="30" as="geometry"/>
                </mxCell>
                <mxCell id="298" value="" style="rounded=0;whiteSpace=wrap;html=1;strokeColor=#FFFFFF;" vertex="1" parent="1">
                    <mxGeometry x="1401" y="3087.5" width="120" height="46" as="geometry"/>
                </mxCell>
                <mxCell id="299" value="" style="rounded=0;whiteSpace=wrap;html=1;strokeColor=#FFFFFF;" vertex="1" parent="1">
                    <mxGeometry x="1401" y="3156.5" width="120" height="46" as="geometry"/>
                </mxCell>
                <mxCell id="300" value="&lt;span style=&quot;font-size: 16px;&quot;&gt;不做处理&lt;/span&gt;" style="text;html=1;align=center;verticalAlign=middle;resizable=0;points=[];autosize=1;strokeColor=none;fillColor=none;" vertex="1" parent="1">
                    <mxGeometry x="1416" y="3165.5" width="90" height="30" as="geometry"/>
                </mxCell>
                <mxCell id="301" value="&lt;span style=&quot;font-size: 16px;&quot;&gt;确认项目结束&lt;/span&gt;" style="text;html=1;align=center;verticalAlign=middle;resizable=0;points=[];autosize=1;strokeColor=none;fillColor=none;" vertex="1" parent="1">
                    <mxGeometry x="1401" y="3095.5" width="120" height="30" as="geometry"/>
                </mxCell>
                <mxCell id="302" value="&lt;span style=&quot;font-size: 16px;&quot;&gt;该项目存在么&lt;/span&gt;&lt;span style=&quot;color: rgba(0, 0, 0, 0); font-family: monospace; font-size: 0px; text-align: start;&quot;&gt;%3CmxGraphModel%3E%3Croot%3E%3CmxCell%20id%3D%220%22%2F%3E%3CmxCell%20id%3D%221%22%20parent%3D%220%22%2F%3E%3CmxCell%20id%3D%222%22%20value%3D%22%26lt%3Bspan%20style%3D%26quot%3Bfont-size%3A%2016px%3B%26quot%3B%26gt%3B%E8%AF%A5%E6%B5%81%E7%A8%8B%E5%AD%98%E5%9C%A8%E4%B9%88%26lt%3B%2Fspan%26gt%3B%22%20style%3D%22text%3Bhtml%3D1%3Balign%3Dcenter%3BverticalAlign%3Dmiddle%3Bresizable%3D0%3Bpoints%3D%5B%5D%3Bautosize%3D1%3BstrokeColor%3Dnone%3BfillColor%3Dnone%3B%22%20vertex%3D%221%22%20parent%3D%221%22%3E%3CmxGeometry%20x%3D%22881.5%22%20y%3D%221555%22%20width%3D%22120%22%20height%3D%2230%22%20as%3D%22geometry%22%2F%3E%3C%2FmxCell%3E%3C%2Froot%3E%3C%2FmxGraphModel%3E&lt;/span&gt;" style="text;html=1;align=center;verticalAlign=middle;resizable=0;points=[];autosize=1;strokeColor=none;fillColor=none;" vertex="1" parent="1">
                    <mxGeometry x="1158" y="3130" width="120" height="30" as="geometry"/>
                </mxCell>
                <mxCell id="303" value="" style="rounded=0;whiteSpace=wrap;html=1;strokeColor=#FFFFFF;" vertex="1" parent="1">
                    <mxGeometry x="926" y="3415" width="120" height="60" as="geometry"/>
                </mxCell>
                <mxCell id="304" value="&lt;span style=&quot;font-size: 16px;&quot;&gt;确认项目结束&lt;/span&gt;" style="text;html=1;align=center;verticalAlign=middle;resizable=0;points=[];autosize=1;strokeColor=none;fillColor=none;" vertex="1" parent="1">
                    <mxGeometry x="926" y="3430" width="120" height="30" as="geometry"/>
                </mxCell>
                <mxCell id="305" value="" style="shape=link;html=1;rounded=1;labelBackgroundColor=default;strokeColor=default;fontFamily=Helvetica;fontSize=16;fontColor=default;endArrow=none;endFill=0;strokeWidth=2;" edge="1" parent="1">
                    <mxGeometry width="100" relative="1" as="geometry">
                        <mxPoint x="1046" y="3448.66" as="sourcePoint"/>
                        <mxPoint x="1136" y="3449" as="targetPoint"/>
                    </mxGeometry>
                </mxCell>
                <mxCell id="306" value="def" style="text;html=1;align=center;verticalAlign=middle;resizable=0;points=[];autosize=1;strokeColor=none;fillColor=none;fontSize=16;fontFamily=Helvetica;fontColor=default;" vertex="1" parent="1">
                    <mxGeometry x="1066" y="3400" width="50" height="30" as="geometry"/>
                </mxCell>
                <mxCell id="307" value="" style="line;strokeWidth=2;html=1;labelBorderColor=none;fontSize=23;fillColor=#eeeeee;strokeColor=#FFFFFF;direction=south;" vertex="1" parent="1">
                    <mxGeometry x="1132" y="3340" width="10" height="200" as="geometry"/>
                </mxCell>
                <mxCell id="308" style="html=1;exitX=1;exitY=0.5;exitDx=0;exitDy=0;exitPerimeter=0;fontSize=16;entryX=1;entryY=0.5;entryDx=0;entryDy=0;entryPerimeter=0;strokeColor=default;rounded=1;endArrow=none;endFill=0;" edge="1" parent="1" source="309">
                    <mxGeometry relative="1" as="geometry">
                        <mxPoint x="1314" y="3445.5" as="targetPoint"/>
                    </mxGeometry>
                </mxCell>
                <mxCell id="309" value="" style="line;strokeWidth=2;html=1;labelBorderColor=none;fontSize=23;fillColor=default;strokeColor=#FFFFFF;" vertex="1" parent="1">
                    <mxGeometry x="1138" y="3405.5" width="261" height="10" as="geometry"/>
                </mxCell>
                <mxCell id="310" style="edgeStyle=none;shape=connector;rounded=1;html=1;exitX=1;exitY=0.5;exitDx=0;exitDy=0;exitPerimeter=0;labelBackgroundColor=default;strokeColor=default;fontFamily=Helvetica;fontSize=16;fontColor=default;endArrow=none;endFill=0;" edge="1" parent="1" source="311">
                    <mxGeometry relative="1" as="geometry">
                        <mxPoint x="1314" y="3445.5" as="targetPoint"/>
                    </mxGeometry>
                </mxCell>
                <mxCell id="311" value="" style="line;strokeWidth=2;html=1;labelBorderColor=none;fontSize=23;fillColor=default;strokeColor=#FFFFFF;" vertex="1" parent="1">
                    <mxGeometry x="1138" y="3475.5" width="261" height="10" as="geometry"/>
                </mxCell>
                <mxCell id="312" value="T" style="text;html=1;align=center;verticalAlign=middle;resizable=0;points=[];autosize=1;strokeColor=none;fillColor=none;fontSize=16;fontFamily=Helvetica;fontColor=default;" vertex="1" parent="1">
                    <mxGeometry x="1287" y="3413.5" width="30" height="30" as="geometry"/>
                </mxCell>
                <mxCell id="313" value="F" style="text;html=1;align=center;verticalAlign=middle;resizable=0;points=[];autosize=1;strokeColor=none;fillColor=none;fontSize=16;fontFamily=Helvetica;fontColor=default;" vertex="1" parent="1">
                    <mxGeometry x="1287" y="3450.5" width="30" height="30" as="geometry"/>
                </mxCell>
                <mxCell id="314" value="" style="rounded=0;whiteSpace=wrap;html=1;strokeColor=#FFFFFF;" vertex="1" parent="1">
                    <mxGeometry x="1399" y="3387.5" width="120" height="46" as="geometry"/>
                </mxCell>
                <mxCell id="315" value="" style="rounded=0;whiteSpace=wrap;html=1;strokeColor=#FFFFFF;" vertex="1" parent="1">
                    <mxGeometry x="1399" y="3456.5" width="147" height="46" as="geometry"/>
                </mxCell>
                <mxCell id="316" value="&lt;span style=&quot;font-size: 16px;&quot;&gt;结束该项目&lt;/span&gt;" style="text;html=1;align=center;verticalAlign=middle;resizable=0;points=[];autosize=1;strokeColor=none;fillColor=none;" vertex="1" parent="1">
                    <mxGeometry x="1422.5" y="3465.5" width="100" height="30" as="geometry"/>
                </mxCell>
                <mxCell id="317" value="&lt;span style=&quot;font-size: 16px;&quot;&gt;不做处理&lt;/span&gt;" style="text;html=1;align=center;verticalAlign=middle;resizable=0;points=[];autosize=1;strokeColor=none;fillColor=none;" vertex="1" parent="1">
                    <mxGeometry x="1414" y="3395.5" width="90" height="30" as="geometry"/>
                </mxCell>
                <mxCell id="318" value="&lt;span style=&quot;font-size: 16px;&quot;&gt;该项目结束了么&lt;/span&gt;" style="text;html=1;align=center;verticalAlign=middle;resizable=0;points=[];autosize=1;strokeColor=none;fillColor=none;" vertex="1" parent="1">
                    <mxGeometry x="1146" y="3430" width="140" height="30" as="geometry"/>
                </mxCell>
                <mxCell id="319" value="" style="line;strokeWidth=2;html=1;labelBorderColor=none;fontSize=23;fillColor=#eeeeee;strokeColor=#FFFFFF;direction=south;" vertex="1" parent="1">
                    <mxGeometry x="1760" y="2570" width="10" height="340" as="geometry"/>
                </mxCell>
                <mxCell id="320" value="" style="rounded=0;whiteSpace=wrap;html=1;strokeColor=#FFFFFF;" vertex="1" parent="1">
                    <mxGeometry x="1766" y="2600" width="120" height="60" as="geometry"/>
                </mxCell>
                <mxCell id="321" value="&lt;span style=&quot;font-size: 16px;&quot;&gt;查找可开启的&lt;br&gt;项目/流程&lt;br&gt;&lt;/span&gt;" style="text;html=1;align=center;verticalAlign=middle;resizable=0;points=[];autosize=1;strokeColor=none;fillColor=none;" vertex="1" parent="1">
                    <mxGeometry x="1766" y="2605" width="120" height="50" as="geometry"/>
                </mxCell>
                <mxCell id="332" value="" style="rounded=0;whiteSpace=wrap;html=1;strokeColor=#FFFFFF;" vertex="1" parent="1">
                    <mxGeometry x="1766" y="2815" width="120" height="60" as="geometry"/>
                </mxCell>
                <mxCell id="333" value="&lt;span style=&quot;font-size: 16px;&quot;&gt;结束&lt;/span&gt;" style="text;html=1;align=center;verticalAlign=middle;resizable=0;points=[];autosize=1;strokeColor=none;fillColor=none;" vertex="1" parent="1">
                    <mxGeometry x="1796" y="2830" width="60" height="30" as="geometry"/>
                </mxCell>
                <mxCell id="335" value="" style="rounded=0;whiteSpace=wrap;html=1;strokeColor=#FFFFFF;" vertex="1" parent="1">
                    <mxGeometry x="1766" y="2700" width="120" height="60" as="geometry"/>
                </mxCell>
                <mxCell id="336" value="&lt;span style=&quot;font-size: 16px;&quot;&gt;返回可开启的&lt;br&gt;项目/流程&lt;br&gt;&lt;/span&gt;" style="text;html=1;align=center;verticalAlign=middle;resizable=0;points=[];autosize=1;strokeColor=none;fillColor=none;" vertex="1" parent="1">
                    <mxGeometry x="1771" y="2705" width="120" height="50" as="geometry"/>
                </mxCell>
                <mxCell id="337" value="" style="line;strokeWidth=2;html=1;labelBorderColor=none;fontSize=23;fillColor=#eeeeee;strokeColor=#FFFFFF;direction=south;" vertex="1" parent="1">
                    <mxGeometry x="2240" y="2600" width="10" height="340" as="geometry"/>
                </mxCell>
                <mxCell id="338" value="" style="rounded=0;whiteSpace=wrap;html=1;strokeColor=#FFFFFF;" vertex="1" parent="1">
                    <mxGeometry x="2246" y="2630" width="120" height="60" as="geometry"/>
                </mxCell>
                <mxCell id="339" value="&lt;span style=&quot;font-size: 16px;&quot;&gt;查询病人&lt;/span&gt;" style="text;html=1;align=center;verticalAlign=middle;resizable=0;points=[];autosize=1;strokeColor=none;fillColor=none;" vertex="1" parent="1">
                    <mxGeometry x="2261" y="2645" width="90" height="30" as="geometry"/>
                </mxCell>
                <mxCell id="340" style="html=1;exitX=1;exitY=0.5;exitDx=0;exitDy=0;exitPerimeter=0;fontSize=16;entryX=1;entryY=0.5;entryDx=0;entryDy=0;entryPerimeter=0;strokeColor=default;rounded=1;endArrow=none;endFill=0;" edge="1" parent="1" source="341">
                    <mxGeometry relative="1" as="geometry">
                        <mxPoint x="2532" y="2770.5" as="targetPoint"/>
                    </mxGeometry>
                </mxCell>
                <mxCell id="341" value="" style="line;strokeWidth=2;html=1;labelBorderColor=none;fontSize=23;fillColor=default;strokeColor=#FFFFFF;" vertex="1" parent="1">
                    <mxGeometry x="2246" y="2730.5" width="371" height="10" as="geometry"/>
                </mxCell>
                <mxCell id="342" style="edgeStyle=none;shape=connector;rounded=1;html=1;exitX=1;exitY=0.5;exitDx=0;exitDy=0;exitPerimeter=0;labelBackgroundColor=default;strokeColor=default;fontFamily=Helvetica;fontSize=16;fontColor=default;endArrow=none;endFill=0;" edge="1" parent="1" source="343">
                    <mxGeometry relative="1" as="geometry">
                        <mxPoint x="2532" y="2770.5" as="targetPoint"/>
                    </mxGeometry>
                </mxCell>
                <mxCell id="343" value="" style="line;strokeWidth=2;html=1;labelBorderColor=none;fontSize=23;fillColor=default;strokeColor=#FFFFFF;" vertex="1" parent="1">
                    <mxGeometry x="2246" y="2800.5" width="371" height="10" as="geometry"/>
                </mxCell>
                <mxCell id="344" value="T" style="text;html=1;align=center;verticalAlign=middle;resizable=0;points=[];autosize=1;strokeColor=none;fillColor=none;fontSize=16;fontFamily=Helvetica;fontColor=default;" vertex="1" parent="1">
                    <mxGeometry x="2505" y="2738.5" width="30" height="30" as="geometry"/>
                </mxCell>
                <mxCell id="345" value="F" style="text;html=1;align=center;verticalAlign=middle;resizable=0;points=[];autosize=1;strokeColor=none;fillColor=none;fontSize=16;fontFamily=Helvetica;fontColor=default;" vertex="1" parent="1">
                    <mxGeometry x="2505" y="2775.5" width="30" height="30" as="geometry"/>
                </mxCell>
                <mxCell id="346" value="查询病人流程操作" style="rounded=0;whiteSpace=wrap;html=1;strokeColor=#FFFFFF;" vertex="1" parent="1">
                    <mxGeometry x="2617" y="2712.5" width="120" height="46" as="geometry"/>
                </mxCell>
                <mxCell id="347" value="" style="rounded=0;whiteSpace=wrap;html=1;strokeColor=#FFFFFF;" vertex="1" parent="1">
                    <mxGeometry x="2617" y="2781.5" width="120" height="46" as="geometry"/>
                </mxCell>
                <mxCell id="348" value="&lt;span style=&quot;font-size: 16px;&quot;&gt;不做处理&lt;/span&gt;" style="text;html=1;align=center;verticalAlign=middle;resizable=0;points=[];autosize=1;strokeColor=none;fillColor=none;" vertex="1" parent="1">
                    <mxGeometry x="2632" y="2790.5" width="90" height="30" as="geometry"/>
                </mxCell>
                <mxCell id="349" value="" style="rounded=0;whiteSpace=wrap;html=1;strokeColor=#FFFFFF;" vertex="1" parent="1">
                    <mxGeometry x="2246" y="2845" width="120" height="60" as="geometry"/>
                </mxCell>
                <mxCell id="350" value="&lt;span style=&quot;font-size: 16px;&quot;&gt;结束&lt;/span&gt;" style="text;html=1;align=center;verticalAlign=middle;resizable=0;points=[];autosize=1;strokeColor=none;fillColor=none;" vertex="1" parent="1">
                    <mxGeometry x="2276" y="2860" width="60" height="30" as="geometry"/>
                </mxCell>
                <mxCell id="351" value="" style="rounded=0;whiteSpace=wrap;html=1;strokeColor=#FFFFFF;" vertex="1" parent="1">
                    <mxGeometry x="2240" y="3095" width="120" height="60" as="geometry"/>
                </mxCell>
                <mxCell id="352" value="&lt;span style=&quot;font-size: 16px;&quot;&gt;查询病人流程&lt;br&gt;操作&lt;br&gt;&lt;/span&gt;" style="text;html=1;align=center;verticalAlign=middle;resizable=0;points=[];autosize=1;strokeColor=none;fillColor=none;" vertex="1" parent="1">
                    <mxGeometry x="2240" y="3100" width="120" height="50" as="geometry"/>
                </mxCell>
                <mxCell id="353" value="" style="shape=link;html=1;rounded=1;labelBackgroundColor=default;strokeColor=default;fontFamily=Helvetica;fontSize=16;fontColor=default;endArrow=none;endFill=0;strokeWidth=2;" edge="1" parent="1">
                    <mxGeometry width="100" relative="1" as="geometry">
                        <mxPoint x="2360" y="3128.66" as="sourcePoint"/>
                        <mxPoint x="2450" y="3129" as="targetPoint"/>
                    </mxGeometry>
                </mxCell>
                <mxCell id="354" value="def" style="text;html=1;align=center;verticalAlign=middle;resizable=0;points=[];autosize=1;strokeColor=none;fillColor=none;fontSize=16;fontFamily=Helvetica;fontColor=default;" vertex="1" parent="1">
                    <mxGeometry x="2380" y="3080" width="50" height="30" as="geometry"/>
                </mxCell>
                <mxCell id="355" value="" style="line;strokeWidth=2;html=1;labelBorderColor=none;fontSize=23;fillColor=#eeeeee;strokeColor=#FFFFFF;direction=south;" vertex="1" parent="1">
                    <mxGeometry x="2446" y="2970" width="10" height="250" as="geometry"/>
                </mxCell>
                <mxCell id="356" value="" style="rounded=0;whiteSpace=wrap;html=1;strokeColor=#FFFFFF;" vertex="1" parent="1">
                    <mxGeometry x="2452" y="2990" width="120" height="60" as="geometry"/>
                </mxCell>
                <mxCell id="357" value="&lt;span style=&quot;font-size: 16px;&quot;&gt;查询病人流程&lt;/span&gt;" style="text;html=1;align=center;verticalAlign=middle;resizable=0;points=[];autosize=1;strokeColor=none;fillColor=none;" vertex="1" parent="1">
                    <mxGeometry x="2452" y="3005" width="120" height="30" as="geometry"/>
                </mxCell>
                <mxCell id="358" style="html=1;exitX=1;exitY=0.5;exitDx=0;exitDy=0;exitPerimeter=0;fontSize=16;entryX=1;entryY=0.5;entryDx=0;entryDy=0;entryPerimeter=0;strokeColor=default;rounded=1;endArrow=none;endFill=0;" edge="1" parent="1" source="359">
                    <mxGeometry relative="1" as="geometry">
                        <mxPoint x="2628" y="3125.5" as="targetPoint"/>
                    </mxGeometry>
                </mxCell>
                <mxCell id="359" value="" style="line;strokeWidth=2;html=1;labelBorderColor=none;fontSize=23;fillColor=default;strokeColor=#FFFFFF;" vertex="1" parent="1">
                    <mxGeometry x="2452" y="3085.5" width="261" height="10" as="geometry"/>
                </mxCell>
                <mxCell id="360" style="edgeStyle=none;shape=connector;rounded=1;html=1;exitX=1;exitY=0.5;exitDx=0;exitDy=0;exitPerimeter=0;labelBackgroundColor=default;strokeColor=default;fontFamily=Helvetica;fontSize=16;fontColor=default;endArrow=none;endFill=0;" edge="1" parent="1" source="361">
                    <mxGeometry relative="1" as="geometry">
                        <mxPoint x="2628" y="3125.5" as="targetPoint"/>
                    </mxGeometry>
                </mxCell>
                <mxCell id="361" value="" style="line;strokeWidth=2;html=1;labelBorderColor=none;fontSize=23;fillColor=default;strokeColor=#FFFFFF;" vertex="1" parent="1">
                    <mxGeometry x="2452" y="3155.5" width="261" height="10" as="geometry"/>
                </mxCell>
                <mxCell id="362" value="T" style="text;html=1;align=center;verticalAlign=middle;resizable=0;points=[];autosize=1;strokeColor=none;fillColor=none;fontSize=16;fontFamily=Helvetica;fontColor=default;" vertex="1" parent="1">
                    <mxGeometry x="2601" y="3093.5" width="30" height="30" as="geometry"/>
                </mxCell>
                <mxCell id="363" value="F" style="text;html=1;align=center;verticalAlign=middle;resizable=0;points=[];autosize=1;strokeColor=none;fillColor=none;fontSize=16;fontFamily=Helvetica;fontColor=default;" vertex="1" parent="1">
                    <mxGeometry x="2601" y="3130.5" width="30" height="30" as="geometry"/>
                </mxCell>
                <mxCell id="364" value="" style="rounded=0;whiteSpace=wrap;html=1;strokeColor=#FFFFFF;" vertex="1" parent="1">
                    <mxGeometry x="2713" y="3067.5" width="120" height="46" as="geometry"/>
                </mxCell>
                <mxCell id="365" value="" style="rounded=0;whiteSpace=wrap;html=1;strokeColor=#FFFFFF;" vertex="1" parent="1">
                    <mxGeometry x="2713" y="3136.5" width="120" height="46" as="geometry"/>
                </mxCell>
                <mxCell id="366" value="&lt;span style=&quot;font-size: 16px;&quot;&gt;不做处理&lt;/span&gt;" style="text;html=1;align=center;verticalAlign=middle;resizable=0;points=[];autosize=1;strokeColor=none;fillColor=none;" vertex="1" parent="1">
                    <mxGeometry x="2728" y="3145.5" width="90" height="30" as="geometry"/>
                </mxCell>
                <mxCell id="367" value="&lt;span style=&quot;font-size: 16px;&quot;&gt;查看并返回流程&lt;/span&gt;" style="text;html=1;align=center;verticalAlign=middle;resizable=0;points=[];autosize=1;strokeColor=none;fillColor=none;" vertex="1" parent="1">
                    <mxGeometry x="2703" y="3075.5" width="140" height="30" as="geometry"/>
                </mxCell>
                <mxCell id="368" value="" style="rounded=0;whiteSpace=wrap;html=1;strokeColor=#FFFFFF;" vertex="1" parent="1">
                    <mxGeometry x="2240" y="3345" width="120" height="60" as="geometry"/>
                </mxCell>
                <mxCell id="369" value="&lt;span style=&quot;font-size: 16px;&quot;&gt;查看并返回流程&lt;/span&gt;" style="text;html=1;align=center;verticalAlign=middle;resizable=0;points=[];autosize=1;strokeColor=none;fillColor=none;" vertex="1" parent="1">
                    <mxGeometry x="2230" y="3360" width="140" height="30" as="geometry"/>
                </mxCell>
                <mxCell id="370" value="" style="shape=link;html=1;rounded=1;labelBackgroundColor=default;strokeColor=default;fontFamily=Helvetica;fontSize=16;fontColor=default;endArrow=none;endFill=0;strokeWidth=2;" edge="1" parent="1">
                    <mxGeometry width="100" relative="1" as="geometry">
                        <mxPoint x="2360" y="3378.6600000000003" as="sourcePoint"/>
                        <mxPoint x="2450" y="3378.9999999999995" as="targetPoint"/>
                    </mxGeometry>
                </mxCell>
                <mxCell id="371" value="def" style="text;html=1;align=center;verticalAlign=middle;resizable=0;points=[];autosize=1;strokeColor=none;fillColor=none;fontSize=16;fontFamily=Helvetica;fontColor=default;" vertex="1" parent="1">
                    <mxGeometry x="2380" y="3330" width="50" height="30" as="geometry"/>
                </mxCell>
                <mxCell id="372" value="" style="line;strokeWidth=2;html=1;labelBorderColor=none;fontSize=23;fillColor=#eeeeee;strokeColor=#FFFFFF;direction=south;" vertex="1" parent="1">
                    <mxGeometry x="2446" y="3270" width="10" height="200" as="geometry"/>
                </mxCell>
                <mxCell id="383" value="&lt;span style=&quot;font-size: 16px;&quot;&gt;该病人存在么&lt;/span&gt;" style="text;html=1;align=center;verticalAlign=middle;resizable=0;points=[];autosize=1;strokeColor=none;fillColor=none;" vertex="1" parent="1">
                    <mxGeometry x="2366" y="2755" width="120" height="30" as="geometry"/>
                </mxCell>
                <mxCell id="384" value="&lt;span style=&quot;font-size: 16px;&quot;&gt;该病人有流程么&lt;/span&gt;" style="text;html=1;align=center;verticalAlign=middle;resizable=0;points=[];autosize=1;strokeColor=none;fillColor=none;" vertex="1" parent="1">
                    <mxGeometry x="2460" y="3110" width="140" height="30" as="geometry"/>
                </mxCell>
                <mxCell id="386" value="" style="rounded=0;whiteSpace=wrap;html=1;strokeColor=#FFFFFF;" vertex="1" parent="1">
                    <mxGeometry x="2452" y="3290" width="158" height="60" as="geometry"/>
                </mxCell>
                <mxCell id="387" value="&lt;span style=&quot;font-size: 16px;&quot;&gt;查看特定流程&lt;/span&gt;" style="text;html=1;align=center;verticalAlign=middle;resizable=0;points=[];autosize=1;strokeColor=none;fillColor=none;" vertex="1" parent="1">
                    <mxGeometry x="2470" y="3305" width="120" height="30" as="geometry"/>
                </mxCell>
                <mxCell id="388" value="" style="rounded=0;whiteSpace=wrap;html=1;strokeColor=#FFFFFF;" vertex="1" parent="1">
                    <mxGeometry x="2452" y="3410" width="158" height="60" as="geometry"/>
                </mxCell>
                <mxCell id="389" value="&lt;span style=&quot;font-size: 16px;&quot;&gt;返回流程细节&lt;/span&gt;" style="text;html=1;align=center;verticalAlign=middle;resizable=0;points=[];autosize=1;strokeColor=none;fillColor=none;" vertex="1" parent="1">
                    <mxGeometry x="2470" y="3425" width="120" height="30" as="geometry"/>
                </mxCell>
                <mxCell id="390" value="" style="line;strokeWidth=2;html=1;labelBorderColor=none;fontSize=23;fillColor=#eeeeee;strokeColor=#FFFFFF;direction=south;" vertex="1" parent="1">
                    <mxGeometry x="110" y="3790" width="10" height="340" as="geometry"/>
                </mxCell>
                <mxCell id="403" value="" style="rounded=0;whiteSpace=wrap;html=1;strokeColor=#FFFFFF;" vertex="1" parent="1">
                    <mxGeometry x="116" y="4042" width="120" height="60" as="geometry"/>
                </mxCell>
                <mxCell id="404" value="&lt;span style=&quot;font-size: 16px;&quot;&gt;结束&lt;/span&gt;" style="text;html=1;align=center;verticalAlign=middle;resizable=0;points=[];autosize=1;strokeColor=none;fillColor=none;" vertex="1" parent="1">
                    <mxGeometry x="146" y="4057" width="60" height="30" as="geometry"/>
                </mxCell>
                <mxCell id="406" value="" style="rounded=0;whiteSpace=wrap;html=1;strokeColor=#FFFFFF;" vertex="1" parent="1">
                    <mxGeometry x="116" y="4345" width="120" height="60" as="geometry"/>
                </mxCell>
                <mxCell id="407" value="&lt;span style=&quot;font-size: 16px;&quot;&gt;排班操作&lt;/span&gt;" style="text;html=1;align=center;verticalAlign=middle;resizable=0;points=[];autosize=1;strokeColor=none;fillColor=none;" vertex="1" parent="1">
                    <mxGeometry x="131" y="4360" width="90" height="30" as="geometry"/>
                </mxCell>
                <mxCell id="408" value="" style="shape=link;html=1;rounded=1;labelBackgroundColor=default;strokeColor=default;fontFamily=Helvetica;fontSize=16;fontColor=default;endArrow=none;endFill=0;strokeWidth=2;" edge="1" parent="1">
                    <mxGeometry width="100" relative="1" as="geometry">
                        <mxPoint x="236" y="4378.66" as="sourcePoint"/>
                        <mxPoint x="326" y="4379" as="targetPoint"/>
                    </mxGeometry>
                </mxCell>
                <mxCell id="409" value="def" style="text;html=1;align=center;verticalAlign=middle;resizable=0;points=[];autosize=1;strokeColor=none;fillColor=none;fontSize=16;fontFamily=Helvetica;fontColor=default;" vertex="1" parent="1">
                    <mxGeometry x="256" y="4330" width="50" height="30" as="geometry"/>
                </mxCell>
                <mxCell id="410" value="" style="line;strokeWidth=2;html=1;labelBorderColor=none;fontSize=23;fillColor=#eeeeee;strokeColor=#FFFFFF;direction=south;" vertex="1" parent="1">
                    <mxGeometry x="322" y="4180" width="10" height="340" as="geometry"/>
                </mxCell>
                <mxCell id="411" value="" style="rounded=0;whiteSpace=wrap;html=1;strokeColor=#FFFFFF;" vertex="1" parent="1">
                    <mxGeometry x="328" y="4210" width="192" height="60" as="geometry"/>
                </mxCell>
                <mxCell id="412" value="&lt;span style=&quot;font-size: 16px;&quot;&gt;查看当前已报到病人&lt;/span&gt;" style="text;html=1;align=center;verticalAlign=middle;resizable=0;points=[];autosize=1;strokeColor=none;fillColor=none;" vertex="1" parent="1">
                    <mxGeometry x="339" y="4225" width="170" height="30" as="geometry"/>
                </mxCell>
                <mxCell id="424" value="" style="rounded=0;whiteSpace=wrap;html=1;strokeColor=#FFFFFF;" vertex="1" parent="1">
                    <mxGeometry x="116" y="4675" width="120" height="60" as="geometry"/>
                </mxCell>
                <mxCell id="425" value="&lt;span style=&quot;font-size: 16px;&quot;&gt;寻找合适的医生&lt;/span&gt;" style="text;html=1;align=center;verticalAlign=middle;resizable=0;points=[];autosize=1;strokeColor=none;fillColor=none;" vertex="1" parent="1">
                    <mxGeometry x="106" y="4690" width="140" height="30" as="geometry"/>
                </mxCell>
                <mxCell id="426" value="" style="shape=link;html=1;rounded=1;labelBackgroundColor=default;strokeColor=default;fontFamily=Helvetica;fontSize=16;fontColor=default;endArrow=none;endFill=0;strokeWidth=2;" edge="1" parent="1">
                    <mxGeometry width="100" relative="1" as="geometry">
                        <mxPoint x="236" y="4708.66" as="sourcePoint"/>
                        <mxPoint x="326" y="4709" as="targetPoint"/>
                    </mxGeometry>
                </mxCell>
                <mxCell id="427" value="def" style="text;html=1;align=center;verticalAlign=middle;resizable=0;points=[];autosize=1;strokeColor=none;fillColor=none;fontSize=16;fontFamily=Helvetica;fontColor=default;" vertex="1" parent="1">
                    <mxGeometry x="256" y="4660" width="50" height="30" as="geometry"/>
                </mxCell>
                <mxCell id="428" value="" style="line;strokeWidth=2;html=1;labelBorderColor=none;fontSize=23;fillColor=#eeeeee;strokeColor=#FFFFFF;direction=south;" vertex="1" parent="1">
                    <mxGeometry x="322" y="4600" width="10" height="200" as="geometry"/>
                </mxCell>
                <mxCell id="429" style="html=1;exitX=1;exitY=0.5;exitDx=0;exitDy=0;exitPerimeter=0;fontSize=16;entryX=1;entryY=0.5;entryDx=0;entryDy=0;entryPerimeter=0;strokeColor=default;rounded=1;endArrow=none;endFill=0;" edge="1" parent="1" source="430">
                    <mxGeometry relative="1" as="geometry">
                        <mxPoint x="504" y="4705.5" as="targetPoint"/>
                    </mxGeometry>
                </mxCell>
                <mxCell id="430" value="" style="line;strokeWidth=2;html=1;labelBorderColor=none;fontSize=23;fillColor=default;strokeColor=#FFFFFF;" vertex="1" parent="1">
                    <mxGeometry x="328" y="4665.5" width="261" height="10" as="geometry"/>
                </mxCell>
                <mxCell id="431" style="edgeStyle=none;shape=connector;rounded=1;html=1;exitX=1;exitY=0.5;exitDx=0;exitDy=0;exitPerimeter=0;labelBackgroundColor=default;strokeColor=default;fontFamily=Helvetica;fontSize=16;fontColor=default;endArrow=none;endFill=0;" edge="1" parent="1" source="432">
                    <mxGeometry relative="1" as="geometry">
                        <mxPoint x="504" y="4705.5" as="targetPoint"/>
                    </mxGeometry>
                </mxCell>
                <mxCell id="432" value="" style="line;strokeWidth=2;html=1;labelBorderColor=none;fontSize=23;fillColor=default;strokeColor=#FFFFFF;" vertex="1" parent="1">
                    <mxGeometry x="328" y="4735.5" width="261" height="10" as="geometry"/>
                </mxCell>
                <mxCell id="433" value="T" style="text;html=1;align=center;verticalAlign=middle;resizable=0;points=[];autosize=1;strokeColor=none;fillColor=none;fontSize=16;fontFamily=Helvetica;fontColor=default;" vertex="1" parent="1">
                    <mxGeometry x="477" y="4673.5" width="30" height="30" as="geometry"/>
                </mxCell>
                <mxCell id="434" value="F" style="text;html=1;align=center;verticalAlign=middle;resizable=0;points=[];autosize=1;strokeColor=none;fillColor=none;fontSize=16;fontFamily=Helvetica;fontColor=default;" vertex="1" parent="1">
                    <mxGeometry x="477" y="4710.5" width="30" height="30" as="geometry"/>
                </mxCell>
                <mxCell id="435" value="" style="rounded=0;whiteSpace=wrap;html=1;strokeColor=#FFFFFF;" vertex="1" parent="1">
                    <mxGeometry x="589" y="4647.5" width="120" height="46" as="geometry"/>
                </mxCell>
                <mxCell id="436" value="" style="rounded=0;whiteSpace=wrap;html=1;strokeColor=#FFFFFF;" vertex="1" parent="1">
                    <mxGeometry x="589" y="4716.5" width="147" height="46" as="geometry"/>
                </mxCell>
                <mxCell id="437" value="&lt;span style=&quot;font-size: 16px;&quot;&gt;查看下一名医生&lt;/span&gt;" style="text;html=1;align=center;verticalAlign=middle;resizable=0;points=[];autosize=1;strokeColor=none;fillColor=none;" vertex="1" parent="1">
                    <mxGeometry x="592.5" y="4725.5" width="140" height="30" as="geometry"/>
                </mxCell>
                <mxCell id="438" value="&lt;span style=&quot;font-size: 16px;&quot;&gt;不做处理&lt;/span&gt;" style="text;html=1;align=center;verticalAlign=middle;resizable=0;points=[];autosize=1;strokeColor=none;fillColor=none;" vertex="1" parent="1">
                    <mxGeometry x="604" y="4655.5" width="90" height="30" as="geometry"/>
                </mxCell>
                <mxCell id="439" value="&lt;span style=&quot;font-size: 16px;&quot;&gt;是最后一名&lt;br&gt;已报到医生么&lt;/span&gt;" style="text;html=1;align=center;verticalAlign=middle;resizable=0;points=[];autosize=1;strokeColor=none;fillColor=none;" vertex="1" parent="1">
                    <mxGeometry x="346" y="4680" width="120" height="50" as="geometry"/>
                </mxCell>
                <mxCell id="440" value="" style="rounded=0;whiteSpace=wrap;html=1;strokeColor=#FFFFFF;" vertex="1" parent="1">
                    <mxGeometry x="116" y="3940" width="214" height="60" as="geometry"/>
                </mxCell>
                <mxCell id="441" value="&lt;span style=&quot;font-size: 16px;&quot;&gt;直到当前病人为&lt;br&gt;最后一个病人&lt;br&gt;&lt;/span&gt;" style="text;html=1;align=center;verticalAlign=middle;resizable=0;points=[];autosize=1;strokeColor=none;fillColor=none;" vertex="1" parent="1">
                    <mxGeometry x="125" y="3945" width="140" height="50" as="geometry"/>
                </mxCell>
                <mxCell id="442" value="" style="line;strokeWidth=2;html=1;labelBorderColor=none;fontSize=23;fillColor=#eeeeee;strokeColor=#FFFFFF;direction=south;" vertex="1" parent="1">
                    <mxGeometry x="280" y="3940" width="10" height="60" as="geometry"/>
                </mxCell>
                <mxCell id="444" value="" style="rounded=0;whiteSpace=wrap;html=1;strokeColor=#FFFFFF;" vertex="1" parent="1">
                    <mxGeometry x="588" y="4440.5" width="120" height="60" as="geometry"/>
                </mxCell>
                <mxCell id="445" value="&lt;span style=&quot;font-size: 16px;&quot;&gt;寻找合适的医生&lt;/span&gt;" style="text;html=1;align=center;verticalAlign=middle;resizable=0;points=[];autosize=1;strokeColor=none;fillColor=none;" vertex="1" parent="1">
                    <mxGeometry x="578" y="4455.5" width="140" height="30" as="geometry"/>
                </mxCell>
                <mxCell id="452" style="html=1;exitX=1;exitY=0.5;exitDx=0;exitDy=0;exitPerimeter=0;fontSize=16;entryX=1;entryY=0.5;entryDx=0;entryDy=0;entryPerimeter=0;strokeColor=default;rounded=1;endArrow=none;endFill=0;" edge="1" parent="1" source="453">
                    <mxGeometry relative="1" as="geometry">
                        <mxPoint x="503" y="4428" as="targetPoint"/>
                    </mxGeometry>
                </mxCell>
                <mxCell id="453" value="" style="line;strokeWidth=2;html=1;labelBorderColor=none;fontSize=23;fillColor=default;strokeColor=#FFFFFF;" vertex="1" parent="1">
                    <mxGeometry x="327" y="4388" width="261" height="10" as="geometry"/>
                </mxCell>
                <mxCell id="454" style="edgeStyle=none;shape=connector;rounded=1;html=1;exitX=1;exitY=0.5;exitDx=0;exitDy=0;exitPerimeter=0;labelBackgroundColor=default;strokeColor=default;fontFamily=Helvetica;fontSize=16;fontColor=default;endArrow=none;endFill=0;" edge="1" parent="1" source="455">
                    <mxGeometry relative="1" as="geometry">
                        <mxPoint x="503" y="4428" as="targetPoint"/>
                    </mxGeometry>
                </mxCell>
                <mxCell id="455" value="" style="line;strokeWidth=2;html=1;labelBorderColor=none;fontSize=23;fillColor=default;strokeColor=#FFFFFF;" vertex="1" parent="1">
                    <mxGeometry x="327" y="4458" width="261" height="10" as="geometry"/>
                </mxCell>
                <mxCell id="456" value="T" style="text;html=1;align=center;verticalAlign=middle;resizable=0;points=[];autosize=1;strokeColor=none;fillColor=none;fontSize=16;fontFamily=Helvetica;fontColor=default;" vertex="1" parent="1">
                    <mxGeometry x="476" y="4396" width="30" height="30" as="geometry"/>
                </mxCell>
                <mxCell id="457" value="F" style="text;html=1;align=center;verticalAlign=middle;resizable=0;points=[];autosize=1;strokeColor=none;fillColor=none;fontSize=16;fontFamily=Helvetica;fontColor=default;" vertex="1" parent="1">
                    <mxGeometry x="476" y="4433" width="30" height="30" as="geometry"/>
                </mxCell>
                <mxCell id="458" value="" style="rounded=0;whiteSpace=wrap;html=1;strokeColor=#FFFFFF;" vertex="1" parent="1">
                    <mxGeometry x="588" y="4370" width="120" height="46" as="geometry"/>
                </mxCell>
                <mxCell id="461" value="&lt;span style=&quot;font-size: 16px;&quot;&gt;把医生分配&lt;br&gt;给病人的疗程&lt;/span&gt;" style="text;html=1;align=center;verticalAlign=middle;resizable=0;points=[];autosize=1;strokeColor=none;fillColor=none;" vertex="1" parent="1">
                    <mxGeometry x="588" y="4368" width="120" height="50" as="geometry"/>
                </mxCell>
                <mxCell id="462" value="&lt;span style=&quot;font-size: 16px;&quot;&gt;该医生能负责这个&lt;br&gt;病人的疗程么&lt;/span&gt;" style="text;html=1;align=center;verticalAlign=middle;resizable=0;points=[];autosize=1;strokeColor=none;fillColor=none;" vertex="1" parent="1">
                    <mxGeometry x="330" y="4402.5" width="150" height="50" as="geometry"/>
                </mxCell>
                <mxCell id="464" value="" style="rounded=0;whiteSpace=wrap;html=1;strokeColor=#FFFFFF;" vertex="1" parent="1">
                    <mxGeometry x="116" y="3840" width="120" height="60" as="geometry"/>
                </mxCell>
                <mxCell id="465" value="&lt;span style=&quot;font-size: 16px;&quot;&gt;排班操作&lt;/span&gt;" style="text;html=1;align=center;verticalAlign=middle;resizable=0;points=[];autosize=1;strokeColor=none;fillColor=none;" vertex="1" parent="1">
                    <mxGeometry x="131" y="3855" width="90" height="30" as="geometry"/>
                </mxCell>
                <mxCell id="469" value="" style="rounded=0;whiteSpace=wrap;html=1;strokeColor=#FFFFFF;" vertex="1" parent="1">
                    <mxGeometry x="328" y="4304" width="192" height="60" as="geometry"/>
                </mxCell>
                <mxCell id="470" value="&lt;span style=&quot;font-size: 16px;&quot;&gt;查看当前已报到医生&lt;/span&gt;" style="text;html=1;align=center;verticalAlign=middle;resizable=0;points=[];autosize=1;strokeColor=none;fillColor=none;" vertex="1" parent="1">
                    <mxGeometry x="339" y="4319" width="170" height="30" as="geometry"/>
                </mxCell>
                <mxCell id="471" value="" style="line;strokeWidth=2;html=1;labelBorderColor=none;fontSize=23;fillColor=default;strokeColor=#FFFFFF;" vertex="1" parent="1">
                    <mxGeometry x="332" y="3969" width="68" height="10" as="geometry"/>
                </mxCell>
                <mxCell id="472" value="" style="rounded=0;whiteSpace=wrap;html=1;strokeColor=#FFFFFF;" vertex="1" parent="1">
                    <mxGeometry x="401" y="3940" width="120" height="60" as="geometry"/>
                </mxCell>
                <mxCell id="473" value="&lt;span style=&quot;font-size: 16px;&quot;&gt;排班操作&lt;/span&gt;" style="text;html=1;align=center;verticalAlign=middle;resizable=0;points=[];autosize=1;strokeColor=none;fillColor=none;" vertex="1" parent="1">
                    <mxGeometry x="416" y="3955" width="90" height="30" as="geometry"/>
                </mxCell>
                <mxCell id="474" value="" style="rounded=0;whiteSpace=wrap;html=1;strokeColor=#FFFFFF;" vertex="1" parent="1">
                    <mxGeometry x="126" y="4985" width="120" height="60" as="geometry"/>
                </mxCell>
                <mxCell id="475" value="&lt;span style=&quot;font-size: 16px;&quot;&gt;查看下一名医生&lt;/span&gt;" style="text;html=1;align=center;verticalAlign=middle;resizable=0;points=[];autosize=1;strokeColor=none;fillColor=none;" vertex="1" parent="1">
                    <mxGeometry x="116" y="5000" width="140" height="30" as="geometry"/>
                </mxCell>
                <mxCell id="476" value="" style="shape=link;html=1;rounded=1;labelBackgroundColor=default;strokeColor=default;fontFamily=Helvetica;fontSize=16;fontColor=default;endArrow=none;endFill=0;strokeWidth=2;" edge="1" parent="1">
                    <mxGeometry width="100" relative="1" as="geometry">
                        <mxPoint x="246" y="5018.66" as="sourcePoint"/>
                        <mxPoint x="336" y="5019" as="targetPoint"/>
                    </mxGeometry>
                </mxCell>
                <mxCell id="477" value="def" style="text;html=1;align=center;verticalAlign=middle;resizable=0;points=[];autosize=1;strokeColor=none;fillColor=none;fontSize=16;fontFamily=Helvetica;fontColor=default;" vertex="1" parent="1">
                    <mxGeometry x="266" y="4970" width="50" height="30" as="geometry"/>
                </mxCell>
                <mxCell id="478" value="" style="line;strokeWidth=2;html=1;labelBorderColor=none;fontSize=23;fillColor=#eeeeee;strokeColor=#FFFFFF;direction=south;" vertex="1" parent="1">
                    <mxGeometry x="332" y="4890" width="10" height="270" as="geometry"/>
                </mxCell>
                <mxCell id="481" value="" style="rounded=0;whiteSpace=wrap;html=1;strokeColor=#FFFFFF;" vertex="1" parent="1">
                    <mxGeometry x="598" y="5080.5" width="120" height="60" as="geometry"/>
                </mxCell>
                <mxCell id="482" value="&lt;span style=&quot;font-size: 16px;&quot;&gt;寻找合适的医生&lt;/span&gt;" style="text;html=1;align=center;verticalAlign=middle;resizable=0;points=[];autosize=1;strokeColor=none;fillColor=none;" vertex="1" parent="1">
                    <mxGeometry x="588" y="5095.5" width="140" height="30" as="geometry"/>
                </mxCell>
                <mxCell id="483" style="html=1;exitX=1;exitY=0.5;exitDx=0;exitDy=0;exitPerimeter=0;fontSize=16;entryX=1;entryY=0.5;entryDx=0;entryDy=0;entryPerimeter=0;strokeColor=default;rounded=1;endArrow=none;endFill=0;" edge="1" parent="1" source="484">
                    <mxGeometry relative="1" as="geometry">
                        <mxPoint x="513" y="5068" as="targetPoint"/>
                    </mxGeometry>
                </mxCell>
                <mxCell id="484" value="" style="line;strokeWidth=2;html=1;labelBorderColor=none;fontSize=23;fillColor=default;strokeColor=#FFFFFF;" vertex="1" parent="1">
                    <mxGeometry x="337" y="5028" width="261" height="10" as="geometry"/>
                </mxCell>
                <mxCell id="485" style="edgeStyle=none;shape=connector;rounded=1;html=1;exitX=1;exitY=0.5;exitDx=0;exitDy=0;exitPerimeter=0;labelBackgroundColor=default;strokeColor=default;fontFamily=Helvetica;fontSize=16;fontColor=default;endArrow=none;endFill=0;" edge="1" parent="1" source="486">
                    <mxGeometry relative="1" as="geometry">
                        <mxPoint x="513" y="5068" as="targetPoint"/>
                    </mxGeometry>
                </mxCell>
                <mxCell id="486" value="" style="line;strokeWidth=2;html=1;labelBorderColor=none;fontSize=23;fillColor=default;strokeColor=#FFFFFF;" vertex="1" parent="1">
                    <mxGeometry x="337" y="5098" width="261" height="10" as="geometry"/>
                </mxCell>
                <mxCell id="487" value="T" style="text;html=1;align=center;verticalAlign=middle;resizable=0;points=[];autosize=1;strokeColor=none;fillColor=none;fontSize=16;fontFamily=Helvetica;fontColor=default;" vertex="1" parent="1">
                    <mxGeometry x="486" y="5036" width="30" height="30" as="geometry"/>
                </mxCell>
                <mxCell id="488" value="F" style="text;html=1;align=center;verticalAlign=middle;resizable=0;points=[];autosize=1;strokeColor=none;fillColor=none;fontSize=16;fontFamily=Helvetica;fontColor=default;" vertex="1" parent="1">
                    <mxGeometry x="486" y="5073" width="30" height="30" as="geometry"/>
                </mxCell>
                <mxCell id="489" value="" style="rounded=0;whiteSpace=wrap;html=1;strokeColor=#FFFFFF;" vertex="1" parent="1">
                    <mxGeometry x="598" y="5010" width="120" height="46" as="geometry"/>
                </mxCell>
                <mxCell id="490" value="&lt;span style=&quot;font-size: 16px;&quot;&gt;把医生分配&lt;br&gt;给病人的疗程&lt;/span&gt;" style="text;html=1;align=center;verticalAlign=middle;resizable=0;points=[];autosize=1;strokeColor=none;fillColor=none;" vertex="1" parent="1">
                    <mxGeometry x="598" y="5008" width="120" height="50" as="geometry"/>
                </mxCell>
                <mxCell id="491" value="&lt;span style=&quot;font-size: 16px;&quot;&gt;该医生能负责这个&lt;br&gt;病人的疗程么&lt;/span&gt;" style="text;html=1;align=center;verticalAlign=middle;resizable=0;points=[];autosize=1;strokeColor=none;fillColor=none;" vertex="1" parent="1">
                    <mxGeometry x="340" y="5042.5" width="150" height="50" as="geometry"/>
                </mxCell>
                <mxCell id="492" value="" style="rounded=0;whiteSpace=wrap;html=1;strokeColor=#FFFFFF;" vertex="1" parent="1">
                    <mxGeometry x="338" y="4944" width="192" height="60" as="geometry"/>
                </mxCell>
                <mxCell id="493" value="&lt;span style=&quot;font-size: 16px;&quot;&gt;查看当前已报到医生&lt;/span&gt;" style="text;html=1;align=center;verticalAlign=middle;resizable=0;points=[];autosize=1;strokeColor=none;fillColor=none;" vertex="1" parent="1">
                    <mxGeometry x="349" y="4959" width="170" height="30" as="geometry"/>
                </mxCell>
                <mxCell id="494" value="" style="line;strokeWidth=2;html=1;labelBorderColor=none;fontSize=23;fillColor=#eeeeee;strokeColor=#FFFFFF;direction=south;" vertex="1" parent="1">
                    <mxGeometry x="929" y="3790" width="10" height="340" as="geometry"/>
                </mxCell>
                <mxCell id="495" value="" style="rounded=0;whiteSpace=wrap;html=1;strokeColor=#FFFFFF;" vertex="1" parent="1">
                    <mxGeometry x="935" y="4042" width="120" height="60" as="geometry"/>
                </mxCell>
                <mxCell id="496" value="&lt;span style=&quot;font-size: 16px;&quot;&gt;结束&lt;/span&gt;" style="text;html=1;align=center;verticalAlign=middle;resizable=0;points=[];autosize=1;strokeColor=none;fillColor=none;" vertex="1" parent="1">
                    <mxGeometry x="965" y="4057" width="60" height="30" as="geometry"/>
                </mxCell>
                <mxCell id="497" value="" style="rounded=0;whiteSpace=wrap;html=1;strokeColor=#FFFFFF;" vertex="1" parent="1">
                    <mxGeometry x="935" y="4345" width="120" height="60" as="geometry"/>
                </mxCell>
                <mxCell id="498" value="&lt;span style=&quot;font-size: 16px;&quot;&gt;排班操作&lt;/span&gt;" style="text;html=1;align=center;verticalAlign=middle;resizable=0;points=[];autosize=1;strokeColor=none;fillColor=none;" vertex="1" parent="1">
                    <mxGeometry x="950" y="4360" width="90" height="30" as="geometry"/>
                </mxCell>
                <mxCell id="499" value="" style="shape=link;html=1;rounded=1;labelBackgroundColor=default;strokeColor=default;fontFamily=Helvetica;fontSize=16;fontColor=default;endArrow=none;endFill=0;strokeWidth=2;" edge="1" parent="1">
                    <mxGeometry width="100" relative="1" as="geometry">
                        <mxPoint x="1055" y="4378.66" as="sourcePoint"/>
                        <mxPoint x="1145" y="4379" as="targetPoint"/>
                    </mxGeometry>
                </mxCell>
                <mxCell id="500" value="def" style="text;html=1;align=center;verticalAlign=middle;resizable=0;points=[];autosize=1;strokeColor=none;fillColor=none;fontSize=16;fontFamily=Helvetica;fontColor=default;" vertex="1" parent="1">
                    <mxGeometry x="1075" y="4330" width="50" height="30" as="geometry"/>
                </mxCell>
                <mxCell id="501" value="" style="line;strokeWidth=2;html=1;labelBorderColor=none;fontSize=23;fillColor=#eeeeee;strokeColor=#FFFFFF;direction=south;" vertex="1" parent="1">
                    <mxGeometry x="1141" y="4180" width="10" height="480" as="geometry"/>
                </mxCell>
                <mxCell id="502" value="" style="rounded=0;whiteSpace=wrap;html=1;strokeColor=#FFFFFF;" vertex="1" parent="1">
                    <mxGeometry x="1147" y="4210" width="192" height="60" as="geometry"/>
                </mxCell>
                <mxCell id="503" value="&lt;span style=&quot;font-size: 16px;&quot;&gt;查看当前已报到病人&lt;/span&gt;" style="text;html=1;align=center;verticalAlign=middle;resizable=0;points=[];autosize=1;strokeColor=none;fillColor=none;" vertex="1" parent="1">
                    <mxGeometry x="1158" y="4225" width="170" height="30" as="geometry"/>
                </mxCell>
                <mxCell id="504" value="" style="rounded=0;whiteSpace=wrap;html=1;strokeColor=#FFFFFF;" vertex="1" parent="1">
                    <mxGeometry x="934" y="4864" width="120" height="60" as="geometry"/>
                </mxCell>
                <mxCell id="505" value="&lt;span style=&quot;font-size: 16px;&quot;&gt;诊疗室调度&lt;/span&gt;" style="text;html=1;align=center;verticalAlign=middle;resizable=0;points=[];autosize=1;strokeColor=none;fillColor=none;" vertex="1" parent="1">
                    <mxGeometry x="944" y="4879" width="100" height="30" as="geometry"/>
                </mxCell>
                <mxCell id="506" value="" style="shape=link;html=1;rounded=1;labelBackgroundColor=default;strokeColor=default;fontFamily=Helvetica;fontSize=16;fontColor=default;endArrow=none;endFill=0;strokeWidth=2;" edge="1" parent="1">
                    <mxGeometry width="100" relative="1" as="geometry">
                        <mxPoint x="1054" y="4897.66" as="sourcePoint"/>
                        <mxPoint x="1144" y="4898" as="targetPoint"/>
                    </mxGeometry>
                </mxCell>
                <mxCell id="507" value="def" style="text;html=1;align=center;verticalAlign=middle;resizable=0;points=[];autosize=1;strokeColor=none;fillColor=none;fontSize=16;fontFamily=Helvetica;fontColor=default;" vertex="1" parent="1">
                    <mxGeometry x="1074" y="4849" width="50" height="30" as="geometry"/>
                </mxCell>
                <mxCell id="508" value="" style="line;strokeWidth=2;html=1;labelBorderColor=none;fontSize=23;fillColor=#eeeeee;strokeColor=#FFFFFF;direction=south;" vertex="1" parent="1">
                    <mxGeometry x="1140" y="4770" width="10" height="320" as="geometry"/>
                </mxCell>
                <mxCell id="509" style="html=1;exitX=1;exitY=0.5;exitDx=0;exitDy=0;exitPerimeter=0;fontSize=16;entryX=1;entryY=0.5;entryDx=0;entryDy=0;entryPerimeter=0;strokeColor=default;rounded=1;endArrow=none;endFill=0;" edge="1" parent="1" source="510">
                    <mxGeometry relative="1" as="geometry">
                        <mxPoint x="1320" y="4928" as="targetPoint"/>
                    </mxGeometry>
                </mxCell>
                <mxCell id="510" value="" style="line;strokeWidth=2;html=1;labelBorderColor=none;fontSize=23;fillColor=default;strokeColor=#FFFFFF;" vertex="1" parent="1">
                    <mxGeometry x="1144" y="4888" width="261" height="10" as="geometry"/>
                </mxCell>
                <mxCell id="511" style="edgeStyle=none;shape=connector;rounded=1;html=1;exitX=1;exitY=0.5;exitDx=0;exitDy=0;exitPerimeter=0;labelBackgroundColor=default;strokeColor=default;fontFamily=Helvetica;fontSize=16;fontColor=default;endArrow=none;endFill=0;" edge="1" parent="1" source="512">
                    <mxGeometry relative="1" as="geometry">
                        <mxPoint x="1320" y="4928" as="targetPoint"/>
                    </mxGeometry>
                </mxCell>
                <mxCell id="512" value="" style="line;strokeWidth=2;html=1;labelBorderColor=none;fontSize=23;fillColor=default;strokeColor=#FFFFFF;" vertex="1" parent="1">
                    <mxGeometry x="1144" y="4958" width="261" height="10" as="geometry"/>
                </mxCell>
                <mxCell id="513" value="T" style="text;html=1;align=center;verticalAlign=middle;resizable=0;points=[];autosize=1;strokeColor=none;fillColor=none;fontSize=16;fontFamily=Helvetica;fontColor=default;" vertex="1" parent="1">
                    <mxGeometry x="1293" y="4896" width="30" height="30" as="geometry"/>
                </mxCell>
                <mxCell id="514" value="F" style="text;html=1;align=center;verticalAlign=middle;resizable=0;points=[];autosize=1;strokeColor=none;fillColor=none;fontSize=16;fontFamily=Helvetica;fontColor=default;" vertex="1" parent="1">
                    <mxGeometry x="1293" y="4933" width="30" height="30" as="geometry"/>
                </mxCell>
                <mxCell id="515" value="" style="rounded=0;whiteSpace=wrap;html=1;strokeColor=#FFFFFF;" vertex="1" parent="1">
                    <mxGeometry x="1405" y="4870" width="195" height="46" as="geometry"/>
                </mxCell>
                <mxCell id="516" value="" style="rounded=0;whiteSpace=wrap;html=1;strokeColor=#FFFFFF;" vertex="1" parent="1">
                    <mxGeometry x="1405" y="4939" width="147" height="46" as="geometry"/>
                </mxCell>
                <mxCell id="517" value="&lt;span style=&quot;font-size: 16px;&quot;&gt;不做处理&lt;/span&gt;" style="text;html=1;align=center;verticalAlign=middle;resizable=0;points=[];autosize=1;strokeColor=none;fillColor=none;" vertex="1" parent="1">
                    <mxGeometry x="1433.5" y="4948" width="90" height="30" as="geometry"/>
                </mxCell>
                <mxCell id="518" value="&lt;span style=&quot;font-size: 16px;&quot;&gt;直到该诊疗室&lt;br&gt;不是最后一个诊疗室&lt;br&gt;&lt;/span&gt;" style="text;html=1;align=center;verticalAlign=middle;resizable=0;points=[];autosize=1;strokeColor=none;fillColor=none;" vertex="1" parent="1">
                    <mxGeometry x="1399" y="4870" width="170" height="50" as="geometry"/>
                </mxCell>
                <mxCell id="519" value="&lt;span style=&quot;font-size: 16px;&quot;&gt;该诊疗室超载了么&lt;/span&gt;" style="text;html=1;align=center;verticalAlign=middle;resizable=0;points=[];autosize=1;strokeColor=none;fillColor=none;" vertex="1" parent="1">
                    <mxGeometry x="1147" y="4912.5" width="150" height="30" as="geometry"/>
                </mxCell>
                <mxCell id="520" value="" style="rounded=0;whiteSpace=wrap;html=1;strokeColor=#FFFFFF;" vertex="1" parent="1">
                    <mxGeometry x="935" y="3940" width="214" height="60" as="geometry"/>
                </mxCell>
                <mxCell id="521" value="&lt;span style=&quot;font-size: 16px;&quot;&gt;直到当前病人为&lt;br&gt;最后一个病人&lt;br&gt;&lt;/span&gt;" style="text;html=1;align=center;verticalAlign=middle;resizable=0;points=[];autosize=1;strokeColor=none;fillColor=none;" vertex="1" parent="1">
                    <mxGeometry x="944" y="3945" width="140" height="50" as="geometry"/>
                </mxCell>
                <mxCell id="522" value="" style="line;strokeWidth=2;html=1;labelBorderColor=none;fontSize=23;fillColor=#eeeeee;strokeColor=#FFFFFF;direction=south;" vertex="1" parent="1">
                    <mxGeometry x="1099" y="3940" width="10" height="60" as="geometry"/>
                </mxCell>
                <mxCell id="523" value="" style="rounded=0;whiteSpace=wrap;html=1;strokeColor=#FFFFFF;" vertex="1" parent="1">
                    <mxGeometry x="1408" y="4592.5" width="120" height="60" as="geometry"/>
                </mxCell>
                <mxCell id="524" value="&lt;span style=&quot;font-size: 16px;&quot;&gt;诊疗室调度&lt;/span&gt;" style="text;html=1;align=center;verticalAlign=middle;resizable=0;points=[];autosize=1;strokeColor=none;fillColor=none;" vertex="1" parent="1">
                    <mxGeometry x="1418" y="4607.5" width="100" height="30" as="geometry"/>
                </mxCell>
                <mxCell id="525" style="html=1;exitX=1;exitY=0.5;exitDx=0;exitDy=0;exitPerimeter=0;fontSize=16;entryX=1;entryY=0.5;entryDx=0;entryDy=0;entryPerimeter=0;strokeColor=default;rounded=1;endArrow=none;endFill=0;" edge="1" parent="1" source="526">
                    <mxGeometry relative="1" as="geometry">
                        <mxPoint x="1323" y="4580" as="targetPoint"/>
                    </mxGeometry>
                </mxCell>
                <mxCell id="526" value="" style="line;strokeWidth=2;html=1;labelBorderColor=none;fontSize=23;fillColor=default;strokeColor=#FFFFFF;" vertex="1" parent="1">
                    <mxGeometry x="1147" y="4540" width="261" height="10" as="geometry"/>
                </mxCell>
                <mxCell id="527" style="edgeStyle=none;shape=connector;rounded=1;html=1;exitX=1;exitY=0.5;exitDx=0;exitDy=0;exitPerimeter=0;labelBackgroundColor=default;strokeColor=default;fontFamily=Helvetica;fontSize=16;fontColor=default;endArrow=none;endFill=0;" edge="1" parent="1" source="528">
                    <mxGeometry relative="1" as="geometry">
                        <mxPoint x="1323" y="4580" as="targetPoint"/>
                    </mxGeometry>
                </mxCell>
                <mxCell id="528" value="" style="line;strokeWidth=2;html=1;labelBorderColor=none;fontSize=23;fillColor=default;strokeColor=#FFFFFF;" vertex="1" parent="1">
                    <mxGeometry x="1147" y="4610" width="261" height="10" as="geometry"/>
                </mxCell>
                <mxCell id="529" value="T" style="text;html=1;align=center;verticalAlign=middle;resizable=0;points=[];autosize=1;strokeColor=none;fillColor=none;fontSize=16;fontFamily=Helvetica;fontColor=default;" vertex="1" parent="1">
                    <mxGeometry x="1296" y="4548" width="30" height="30" as="geometry"/>
                </mxCell>
                <mxCell id="530" value="F" style="text;html=1;align=center;verticalAlign=middle;resizable=0;points=[];autosize=1;strokeColor=none;fillColor=none;fontSize=16;fontFamily=Helvetica;fontColor=default;" vertex="1" parent="1">
                    <mxGeometry x="1296" y="4585" width="30" height="30" as="geometry"/>
                </mxCell>
                <mxCell id="531" value="" style="rounded=0;whiteSpace=wrap;html=1;strokeColor=#FFFFFF;" vertex="1" parent="1">
                    <mxGeometry x="1408" y="4522" width="120" height="46" as="geometry"/>
                </mxCell>
                <mxCell id="532" value="&lt;span style=&quot;font-size: 16px;&quot;&gt;不做处理&lt;/span&gt;" style="text;html=1;align=center;verticalAlign=middle;resizable=0;points=[];autosize=1;strokeColor=none;fillColor=none;" vertex="1" parent="1">
                    <mxGeometry x="1423" y="4530" width="90" height="30" as="geometry"/>
                </mxCell>
                <mxCell id="533" value="&lt;span style=&quot;font-size: 16px;&quot;&gt;直到当前为&lt;br&gt;最后一个项目&lt;/span&gt;" style="text;html=1;align=center;verticalAlign=middle;resizable=0;points=[];autosize=1;strokeColor=none;fillColor=none;" vertex="1" parent="1">
                    <mxGeometry x="1165" y="4554.5" width="120" height="50" as="geometry"/>
                </mxCell>
                <mxCell id="534" value="" style="rounded=0;whiteSpace=wrap;html=1;strokeColor=#FFFFFF;" vertex="1" parent="1">
                    <mxGeometry x="935" y="3840" width="120" height="60" as="geometry"/>
                </mxCell>
                <mxCell id="535" value="&lt;span style=&quot;font-size: 16px;&quot;&gt;排班操作&lt;/span&gt;" style="text;html=1;align=center;verticalAlign=middle;resizable=0;points=[];autosize=1;strokeColor=none;fillColor=none;" vertex="1" parent="1">
                    <mxGeometry x="950" y="3855" width="90" height="30" as="geometry"/>
                </mxCell>
                <mxCell id="536" value="" style="rounded=0;whiteSpace=wrap;html=1;strokeColor=#FFFFFF;" vertex="1" parent="1">
                    <mxGeometry x="1147" y="4304" width="192" height="60" as="geometry"/>
                </mxCell>
                <mxCell id="537" value="&lt;span style=&quot;font-size: 16px;&quot;&gt;查看病人对应流程&lt;/span&gt;" style="text;html=1;align=center;verticalAlign=middle;resizable=0;points=[];autosize=1;strokeColor=none;fillColor=none;" vertex="1" parent="1">
                    <mxGeometry x="1168" y="4319" width="150" height="30" as="geometry"/>
                </mxCell>
                <mxCell id="538" value="" style="line;strokeWidth=2;html=1;labelBorderColor=none;fontSize=23;fillColor=default;strokeColor=#FFFFFF;" vertex="1" parent="1">
                    <mxGeometry x="1151" y="3969" width="68" height="10" as="geometry"/>
                </mxCell>
                <mxCell id="539" value="" style="rounded=0;whiteSpace=wrap;html=1;strokeColor=#FFFFFF;" vertex="1" parent="1">
                    <mxGeometry x="1220" y="3940" width="120" height="60" as="geometry"/>
                </mxCell>
                <mxCell id="540" value="&lt;span style=&quot;font-size: 16px;&quot;&gt;排班操作&lt;/span&gt;" style="text;html=1;align=center;verticalAlign=middle;resizable=0;points=[];autosize=1;strokeColor=none;fillColor=none;" vertex="1" parent="1">
                    <mxGeometry x="1235" y="3955" width="90" height="30" as="geometry"/>
                </mxCell>
                <mxCell id="559" value="" style="rounded=0;whiteSpace=wrap;html=1;strokeColor=#FFFFFF;" vertex="1" parent="1">
                    <mxGeometry x="1147" y="4416" width="192" height="60" as="geometry"/>
                </mxCell>
                <mxCell id="560" value="&lt;span style=&quot;font-size: 16px;&quot;&gt;诊疗室调度&lt;/span&gt;" style="text;html=1;align=center;verticalAlign=middle;resizable=0;points=[];autosize=1;strokeColor=none;fillColor=none;" vertex="1" parent="1">
                    <mxGeometry x="1193" y="4431" width="100" height="30" as="geometry"/>
                </mxCell>
                <mxCell id="561" value="" style="rounded=0;whiteSpace=wrap;html=1;strokeColor=#FFFFFF;" vertex="1" parent="1">
                    <mxGeometry x="1146" y="4810" width="192" height="60" as="geometry"/>
                </mxCell>
                <mxCell id="562" value="&lt;span style=&quot;font-size: 16px;&quot;&gt;查看当前项目可用诊疗室&lt;/span&gt;" style="text;html=1;align=center;verticalAlign=middle;resizable=0;points=[];autosize=1;strokeColor=none;fillColor=none;" vertex="1" parent="1">
                    <mxGeometry x="1142" y="4825" width="200" height="30" as="geometry"/>
                </mxCell>
                <mxCell id="565" value="" style="line;strokeWidth=2;html=1;labelBorderColor=none;fontSize=23;fillColor=#eeeeee;strokeColor=#FFFFFF;direction=south;" vertex="1" parent="1">
                    <mxGeometry x="1566" y="4870" width="10" height="46" as="geometry"/>
                </mxCell>
                <mxCell id="566" value="" style="line;strokeWidth=2;html=1;labelBorderColor=none;fontSize=23;fillColor=default;strokeColor=#FFFFFF;" vertex="1" parent="1">
                    <mxGeometry x="1601" y="4890" width="39" height="10" as="geometry"/>
                </mxCell>
                <mxCell id="567" value="" style="rounded=0;whiteSpace=wrap;html=1;strokeColor=#FFFFFF;" vertex="1" parent="1">
                    <mxGeometry x="1640" y="4865" width="120" height="60" as="geometry"/>
                </mxCell>
                <mxCell id="568" value="&lt;span style=&quot;font-size: 16px;&quot;&gt;诊疗室调度&lt;/span&gt;" style="text;html=1;align=center;verticalAlign=middle;resizable=0;points=[];autosize=1;strokeColor=none;fillColor=none;" vertex="1" parent="1">
                    <mxGeometry x="1650" y="4880" width="100" height="30" as="geometry"/>
                </mxCell>
                <mxCell id="569" value="" style="rounded=0;whiteSpace=wrap;html=1;strokeColor=#FFFFFF;" vertex="1" parent="1">
                    <mxGeometry x="1146" y="5007" width="147" height="46" as="geometry"/>
                </mxCell>
                <mxCell id="570" value="&lt;span style=&quot;font-size: 16px;&quot;&gt;分配项目到&lt;br&gt;下一个诊疗室&lt;/span&gt;" style="text;html=1;align=center;verticalAlign=middle;resizable=0;points=[];autosize=1;strokeColor=none;fillColor=none;" vertex="1" parent="1">
                    <mxGeometry x="1158.5" y="5006" width="120" height="50" as="geometry"/>
                </mxCell>
                <mxCell id="571" value="" style="line;strokeWidth=2;html=1;labelBorderColor=none;fontSize=23;fillColor=#eeeeee;strokeColor=#FFFFFF;direction=south;" vertex="1" parent="1">
                    <mxGeometry x="2524.5" y="3790" width="10" height="340" as="geometry"/>
                </mxCell>
                <mxCell id="572" value="" style="rounded=0;whiteSpace=wrap;html=1;strokeColor=#FFFFFF;" vertex="1" parent="1">
                    <mxGeometry x="2530.5" y="3820" width="120" height="60" as="geometry"/>
                </mxCell>
                <mxCell id="573" value="&lt;span style=&quot;font-size: 16px;&quot;&gt;查询特定流程&lt;/span&gt;" style="text;html=1;align=center;verticalAlign=middle;resizable=0;points=[];autosize=1;strokeColor=none;fillColor=none;" vertex="1" parent="1">
                    <mxGeometry x="2530.5" y="3835" width="120" height="30" as="geometry"/>
                </mxCell>
                <mxCell id="574" style="html=1;exitX=1;exitY=0.5;exitDx=0;exitDy=0;exitPerimeter=0;fontSize=16;entryX=1;entryY=0.5;entryDx=0;entryDy=0;entryPerimeter=0;strokeColor=default;rounded=1;endArrow=none;endFill=0;" edge="1" parent="1" source="575">
                    <mxGeometry relative="1" as="geometry">
                        <mxPoint x="2816.5" y="3960.5" as="targetPoint"/>
                    </mxGeometry>
                </mxCell>
                <mxCell id="575" value="" style="line;strokeWidth=2;html=1;labelBorderColor=none;fontSize=23;fillColor=default;strokeColor=#FFFFFF;" vertex="1" parent="1">
                    <mxGeometry x="2530.5" y="3920.5" width="371" height="10" as="geometry"/>
                </mxCell>
                <mxCell id="576" style="edgeStyle=none;shape=connector;rounded=1;html=1;exitX=1;exitY=0.5;exitDx=0;exitDy=0;exitPerimeter=0;labelBackgroundColor=default;strokeColor=default;fontFamily=Helvetica;fontSize=16;fontColor=default;endArrow=none;endFill=0;" edge="1" parent="1" source="577">
                    <mxGeometry relative="1" as="geometry">
                        <mxPoint x="2816.5" y="3960.5" as="targetPoint"/>
                    </mxGeometry>
                </mxCell>
                <mxCell id="577" value="" style="line;strokeWidth=2;html=1;labelBorderColor=none;fontSize=23;fillColor=default;strokeColor=#FFFFFF;" vertex="1" parent="1">
                    <mxGeometry x="2530.5" y="3990.5" width="371" height="10" as="geometry"/>
                </mxCell>
                <mxCell id="578" value="T" style="text;html=1;align=center;verticalAlign=middle;resizable=0;points=[];autosize=1;strokeColor=none;fillColor=none;fontSize=16;fontFamily=Helvetica;fontColor=default;" vertex="1" parent="1">
                    <mxGeometry x="2789.5" y="3928.5" width="30" height="30" as="geometry"/>
                </mxCell>
                <mxCell id="579" value="F" style="text;html=1;align=center;verticalAlign=middle;resizable=0;points=[];autosize=1;strokeColor=none;fillColor=none;fontSize=16;fontFamily=Helvetica;fontColor=default;" vertex="1" parent="1">
                    <mxGeometry x="2789.5" y="3965.5" width="30" height="30" as="geometry"/>
                </mxCell>
                <mxCell id="580" value="" style="rounded=0;whiteSpace=wrap;html=1;strokeColor=#FFFFFF;" vertex="1" parent="1">
                    <mxGeometry x="2901.5" y="3902.5" width="120" height="46" as="geometry"/>
                </mxCell>
                <mxCell id="581" value="" style="rounded=0;whiteSpace=wrap;html=1;strokeColor=#FFFFFF;" vertex="1" parent="1">
                    <mxGeometry x="2901.5" y="3971.5" width="120" height="46" as="geometry"/>
                </mxCell>
                <mxCell id="582" value="&lt;span style=&quot;font-size: 16px;&quot;&gt;删除该流程&lt;/span&gt;" style="text;html=1;align=center;verticalAlign=middle;resizable=0;points=[];autosize=1;strokeColor=none;fillColor=none;" vertex="1" parent="1">
                    <mxGeometry x="2911.5" y="3910.5" width="100" height="30" as="geometry"/>
                </mxCell>
                <mxCell id="583" value="&lt;span style=&quot;font-size: 16px;&quot;&gt;不做处理&lt;/span&gt;" style="text;html=1;align=center;verticalAlign=middle;resizable=0;points=[];autosize=1;strokeColor=none;fillColor=none;" vertex="1" parent="1">
                    <mxGeometry x="2916.5" y="3980.5" width="90" height="30" as="geometry"/>
                </mxCell>
                <mxCell id="584" value="" style="rounded=0;whiteSpace=wrap;html=1;strokeColor=#FFFFFF;" vertex="1" parent="1">
                    <mxGeometry x="2530.5" y="4035" width="120" height="60" as="geometry"/>
                </mxCell>
                <mxCell id="585" value="&lt;span style=&quot;font-size: 16px;&quot;&gt;结束&lt;/span&gt;" style="text;html=1;align=center;verticalAlign=middle;resizable=0;points=[];autosize=1;strokeColor=none;fillColor=none;" vertex="1" parent="1">
                    <mxGeometry x="2560.5" y="4050" width="60" height="30" as="geometry"/>
                </mxCell>
                <mxCell id="586" value="&lt;span style=&quot;font-size: 16px;&quot;&gt;该流程存在么&lt;/span&gt;" style="text;html=1;align=center;verticalAlign=middle;resizable=0;points=[];autosize=1;strokeColor=none;fillColor=none;" vertex="1" parent="1">
                    <mxGeometry x="2656" y="3945" width="120" height="30" as="geometry"/>
                </mxCell>
                <mxCell id="587" value="" style="line;strokeWidth=2;html=1;labelBorderColor=none;fontSize=23;fillColor=#eeeeee;strokeColor=#FFFFFF;direction=south;" vertex="1" parent="1">
                    <mxGeometry x="3250" y="3762" width="10" height="340" as="geometry"/>
                </mxCell>
                <mxCell id="588" value="" style="rounded=0;whiteSpace=wrap;html=1;strokeColor=#FFFFFF;" vertex="1" parent="1">
                    <mxGeometry x="3256" y="3792" width="120" height="60" as="geometry"/>
                </mxCell>
                <mxCell id="589" value="&lt;span style=&quot;font-size: 16px;&quot;&gt;查询特定流程&lt;/span&gt;" style="text;html=1;align=center;verticalAlign=middle;resizable=0;points=[];autosize=1;strokeColor=none;fillColor=none;" vertex="1" parent="1">
                    <mxGeometry x="3256" y="3807" width="120" height="30" as="geometry"/>
                </mxCell>
                <mxCell id="590" style="html=1;exitX=1;exitY=0.5;exitDx=0;exitDy=0;exitPerimeter=0;fontSize=16;entryX=1;entryY=0.5;entryDx=0;entryDy=0;entryPerimeter=0;strokeColor=default;rounded=1;endArrow=none;endFill=0;" edge="1" parent="1" source="591">
                    <mxGeometry relative="1" as="geometry">
                        <mxPoint x="3542" y="3932.5" as="targetPoint"/>
                    </mxGeometry>
                </mxCell>
                <mxCell id="591" value="" style="line;strokeWidth=2;html=1;labelBorderColor=none;fontSize=23;fillColor=default;strokeColor=#FFFFFF;" vertex="1" parent="1">
                    <mxGeometry x="3256" y="3892.5" width="371" height="10" as="geometry"/>
                </mxCell>
                <mxCell id="592" style="edgeStyle=none;shape=connector;rounded=1;html=1;exitX=1;exitY=0.5;exitDx=0;exitDy=0;exitPerimeter=0;labelBackgroundColor=default;strokeColor=default;fontFamily=Helvetica;fontSize=16;fontColor=default;endArrow=none;endFill=0;" edge="1" parent="1" source="593">
                    <mxGeometry relative="1" as="geometry">
                        <mxPoint x="3542" y="3932.5" as="targetPoint"/>
                    </mxGeometry>
                </mxCell>
                <mxCell id="593" value="" style="line;strokeWidth=2;html=1;labelBorderColor=none;fontSize=23;fillColor=default;strokeColor=#FFFFFF;" vertex="1" parent="1">
                    <mxGeometry x="3256" y="3962.5" width="371" height="10" as="geometry"/>
                </mxCell>
                <mxCell id="594" value="T" style="text;html=1;align=center;verticalAlign=middle;resizable=0;points=[];autosize=1;strokeColor=none;fillColor=none;fontSize=16;fontFamily=Helvetica;fontColor=default;" vertex="1" parent="1">
                    <mxGeometry x="3515" y="3900.5" width="30" height="30" as="geometry"/>
                </mxCell>
                <mxCell id="595" value="F" style="text;html=1;align=center;verticalAlign=middle;resizable=0;points=[];autosize=1;strokeColor=none;fillColor=none;fontSize=16;fontFamily=Helvetica;fontColor=default;" vertex="1" parent="1">
                    <mxGeometry x="3515" y="3937.5" width="30" height="30" as="geometry"/>
                </mxCell>
                <mxCell id="596" value="" style="rounded=0;whiteSpace=wrap;html=1;strokeColor=#FFFFFF;" vertex="1" parent="1">
                    <mxGeometry x="3627" y="3874.5" width="120" height="46" as="geometry"/>
                </mxCell>
                <mxCell id="597" value="" style="rounded=0;whiteSpace=wrap;html=1;strokeColor=#FFFFFF;" vertex="1" parent="1">
                    <mxGeometry x="3627" y="3943.5" width="120" height="46" as="geometry"/>
                </mxCell>
                <mxCell id="598" value="&lt;span style=&quot;font-size: 16px;&quot;&gt;修改该流程&lt;/span&gt;" style="text;html=1;align=center;verticalAlign=middle;resizable=0;points=[];autosize=1;strokeColor=none;fillColor=none;" vertex="1" parent="1">
                    <mxGeometry x="3637" y="3882.5" width="100" height="30" as="geometry"/>
                </mxCell>
                <mxCell id="599" value="&lt;span style=&quot;font-size: 16px;&quot;&gt;不做处理&lt;/span&gt;" style="text;html=1;align=center;verticalAlign=middle;resizable=0;points=[];autosize=1;strokeColor=none;fillColor=none;" vertex="1" parent="1">
                    <mxGeometry x="3642" y="3952.5" width="90" height="30" as="geometry"/>
                </mxCell>
                <mxCell id="600" value="" style="rounded=0;whiteSpace=wrap;html=1;strokeColor=#FFFFFF;" vertex="1" parent="1">
                    <mxGeometry x="3256" y="4007" width="120" height="60" as="geometry"/>
                </mxCell>
                <mxCell id="601" value="&lt;span style=&quot;font-size: 16px;&quot;&gt;结束&lt;/span&gt;" style="text;html=1;align=center;verticalAlign=middle;resizable=0;points=[];autosize=1;strokeColor=none;fillColor=none;" vertex="1" parent="1">
                    <mxGeometry x="3286" y="4022" width="60" height="30" as="geometry"/>
                </mxCell>
                <mxCell id="602" value="&lt;span style=&quot;font-size: 16px;&quot;&gt;该流程存在么&lt;/span&gt;" style="text;html=1;align=center;verticalAlign=middle;resizable=0;points=[];autosize=1;strokeColor=none;fillColor=none;" vertex="1" parent="1">
                    <mxGeometry x="3381.5" y="3917" width="120" height="30" as="geometry"/>
                </mxCell>
                <mxCell id="603" value="" style="line;strokeWidth=2;html=1;labelBorderColor=none;fontSize=23;fillColor=#eeeeee;strokeColor=#FFFFFF;direction=south;" vertex="1" parent="1">
                    <mxGeometry x="1795" y="3792" width="10" height="340" as="geometry"/>
                </mxCell>
                <mxCell id="604" value="" style="rounded=0;whiteSpace=wrap;html=1;strokeColor=#FFFFFF;" vertex="1" parent="1">
                    <mxGeometry x="1801" y="4044" width="120" height="60" as="geometry"/>
                </mxCell>
                <mxCell id="605" value="&lt;span style=&quot;font-size: 16px;&quot;&gt;结束&lt;/span&gt;" style="text;html=1;align=center;verticalAlign=middle;resizable=0;points=[];autosize=1;strokeColor=none;fillColor=none;" vertex="1" parent="1">
                    <mxGeometry x="1831" y="4059" width="60" height="30" as="geometry"/>
                </mxCell>
                <mxCell id="606" value="" style="rounded=0;whiteSpace=wrap;html=1;strokeColor=#FFFFFF;" vertex="1" parent="1">
                    <mxGeometry x="1801" y="3942" width="214" height="60" as="geometry"/>
                </mxCell>
                <mxCell id="607" value="&lt;span style=&quot;font-size: 16px;&quot;&gt;直到该项目&lt;br&gt;不是最后一个项目&lt;br&gt;&lt;/span&gt;" style="text;html=1;align=center;verticalAlign=middle;resizable=0;points=[];autosize=1;strokeColor=none;fillColor=none;" vertex="1" parent="1">
                    <mxGeometry x="1805" y="3947" width="150" height="50" as="geometry"/>
                </mxCell>
                <mxCell id="608" value="" style="line;strokeWidth=2;html=1;labelBorderColor=none;fontSize=23;fillColor=#eeeeee;strokeColor=#FFFFFF;direction=south;" vertex="1" parent="1">
                    <mxGeometry x="1965" y="3942" width="10" height="60" as="geometry"/>
                </mxCell>
                <mxCell id="609" value="" style="rounded=0;whiteSpace=wrap;html=1;strokeColor=#FFFFFF;" vertex="1" parent="1">
                    <mxGeometry x="1801" y="3842" width="120" height="60" as="geometry"/>
                </mxCell>
                <mxCell id="610" value="&lt;span style=&quot;font-size: 16px;&quot;&gt;新增流程&lt;/span&gt;" style="text;html=1;align=center;verticalAlign=middle;resizable=0;points=[];autosize=1;strokeColor=none;fillColor=none;" vertex="1" parent="1">
                    <mxGeometry x="1816" y="3857" width="90" height="30" as="geometry"/>
                </mxCell>
                <mxCell id="611" value="" style="line;strokeWidth=2;html=1;labelBorderColor=none;fontSize=23;fillColor=default;strokeColor=#FFFFFF;" vertex="1" parent="1">
                    <mxGeometry x="2017" y="3971" width="68" height="10" as="geometry"/>
                </mxCell>
                <mxCell id="612" value="" style="rounded=0;whiteSpace=wrap;html=1;strokeColor=#FFFFFF;" vertex="1" parent="1">
                    <mxGeometry x="2086" y="3942" width="120" height="60" as="geometry"/>
                </mxCell>
                <mxCell id="613" value="&lt;span style=&quot;font-size: 16px;&quot;&gt;添加项目到&lt;br&gt;流程里&lt;/span&gt;" style="text;html=1;align=center;verticalAlign=middle;resizable=0;points=[];autosize=1;strokeColor=none;fillColor=none;" vertex="1" parent="1">
                    <mxGeometry x="2096" y="3947" width="100" height="50" as="geometry"/>
                </mxCell>
                <mxCell id="614" value="" style="line;strokeWidth=2;html=1;labelBorderColor=none;fontSize=23;fillColor=#eeeeee;strokeColor=#FFFFFF;direction=south;" vertex="1" parent="1">
                    <mxGeometry x="120" y="5570" width="10" height="340" as="geometry"/>
                </mxCell>
                <mxCell id="615" value="" style="rounded=0;whiteSpace=wrap;html=1;strokeColor=#FFFFFF;" vertex="1" parent="1">
                    <mxGeometry x="126" y="5600" width="120" height="60" as="geometry"/>
                </mxCell>
                <mxCell id="616" value="&lt;span style=&quot;font-size: 16px;&quot;&gt;用户报道&lt;/span&gt;" style="text;html=1;align=center;verticalAlign=middle;resizable=0;points=[];autosize=1;strokeColor=none;fillColor=none;" vertex="1" parent="1">
                    <mxGeometry x="141" y="5615" width="90" height="30" as="geometry"/>
                </mxCell>
                <mxCell id="617" style="html=1;exitX=1;exitY=0.5;exitDx=0;exitDy=0;exitPerimeter=0;fontSize=16;entryX=1;entryY=0.5;entryDx=0;entryDy=0;entryPerimeter=0;strokeColor=default;rounded=1;endArrow=none;endFill=0;" edge="1" parent="1" source="618">
                    <mxGeometry relative="1" as="geometry">
                        <mxPoint x="411.9999999999991" y="5740.5" as="targetPoint"/>
                    </mxGeometry>
                </mxCell>
                <mxCell id="618" value="" style="line;strokeWidth=2;html=1;labelBorderColor=none;fontSize=23;fillColor=default;strokeColor=#FFFFFF;" vertex="1" parent="1">
                    <mxGeometry x="126" y="5700.5" width="371" height="10" as="geometry"/>
                </mxCell>
                <mxCell id="619" style="edgeStyle=none;shape=connector;rounded=1;html=1;exitX=1;exitY=0.5;exitDx=0;exitDy=0;exitPerimeter=0;labelBackgroundColor=default;strokeColor=default;fontFamily=Helvetica;fontSize=16;fontColor=default;endArrow=none;endFill=0;" edge="1" parent="1" source="620">
                    <mxGeometry relative="1" as="geometry">
                        <mxPoint x="411.9999999999991" y="5740.5" as="targetPoint"/>
                    </mxGeometry>
                </mxCell>
                <mxCell id="620" value="" style="line;strokeWidth=2;html=1;labelBorderColor=none;fontSize=23;fillColor=default;strokeColor=#FFFFFF;" vertex="1" parent="1">
                    <mxGeometry x="126" y="5770.5" width="371" height="10" as="geometry"/>
                </mxCell>
                <mxCell id="621" value="T" style="text;html=1;align=center;verticalAlign=middle;resizable=0;points=[];autosize=1;strokeColor=none;fillColor=none;fontSize=16;fontFamily=Helvetica;fontColor=default;" vertex="1" parent="1">
                    <mxGeometry x="385" y="5708.5" width="30" height="30" as="geometry"/>
                </mxCell>
                <mxCell id="622" value="F" style="text;html=1;align=center;verticalAlign=middle;resizable=0;points=[];autosize=1;strokeColor=none;fillColor=none;fontSize=16;fontFamily=Helvetica;fontColor=default;" vertex="1" parent="1">
                    <mxGeometry x="385" y="5745.5" width="30" height="30" as="geometry"/>
                </mxCell>
                <mxCell id="623" value="" style="rounded=0;whiteSpace=wrap;html=1;strokeColor=#FFFFFF;" vertex="1" parent="1">
                    <mxGeometry x="497" y="5682.5" width="223" height="46" as="geometry"/>
                </mxCell>
                <mxCell id="624" value="" style="rounded=0;whiteSpace=wrap;html=1;strokeColor=#FFFFFF;" vertex="1" parent="1">
                    <mxGeometry x="497" y="5751.5" width="223" height="46" as="geometry"/>
                </mxCell>
                <mxCell id="625" value="&lt;span style=&quot;font-size: 16px;&quot;&gt;把用户存入当天报道&lt;br&gt;的医生列表&lt;br&gt;&lt;/span&gt;" style="text;html=1;align=center;verticalAlign=middle;resizable=0;points=[];autosize=1;strokeColor=none;fillColor=none;" vertex="1" parent="1">
                    <mxGeometry x="521" y="5682.5" width="170" height="50" as="geometry"/>
                </mxCell>
                <mxCell id="627" value="" style="rounded=0;whiteSpace=wrap;html=1;strokeColor=#FFFFFF;" vertex="1" parent="1">
                    <mxGeometry x="126" y="5815" width="120" height="60" as="geometry"/>
                </mxCell>
                <mxCell id="628" value="&lt;span style=&quot;font-size: 16px;&quot;&gt;结束&lt;/span&gt;" style="text;html=1;align=center;verticalAlign=middle;resizable=0;points=[];autosize=1;strokeColor=none;fillColor=none;" vertex="1" parent="1">
                    <mxGeometry x="156" y="5830" width="60" height="30" as="geometry"/>
                </mxCell>
                <mxCell id="629" value="&lt;span style=&quot;font-size: 16px;&quot;&gt;该用户是医生么&lt;/span&gt;" style="text;html=1;align=center;verticalAlign=middle;resizable=0;points=[];autosize=1;strokeColor=none;fillColor=none;" vertex="1" parent="1">
                    <mxGeometry x="241.5" y="5725" width="140" height="30" as="geometry"/>
                </mxCell>
                <mxCell id="631" value="&lt;span style=&quot;font-size: 16px;&quot;&gt;把用户存入当天报道&lt;br&gt;的病人列表&lt;br&gt;&lt;/span&gt;" style="text;html=1;align=center;verticalAlign=middle;resizable=0;points=[];autosize=1;strokeColor=none;fillColor=none;" vertex="1" parent="1">
                    <mxGeometry x="516" y="5751.5" width="170" height="50" as="geometry"/>
                </mxCell>
                <mxCell id="632" value="" style="line;strokeWidth=2;html=1;labelBorderColor=none;fontSize=23;fillColor=#eeeeee;strokeColor=#FFFFFF;direction=south;" vertex="1" parent="1">
                    <mxGeometry x="941" y="5580" width="10" height="340" as="geometry"/>
                </mxCell>
                <mxCell id="633" value="" style="rounded=0;whiteSpace=wrap;html=1;strokeColor=#FFFFFF;" vertex="1" parent="1">
                    <mxGeometry x="947" y="5610" width="120" height="60" as="geometry"/>
                </mxCell>
                <mxCell id="634" value="&lt;span style=&quot;font-size: 16px;&quot;&gt;用户填入&lt;br&gt;个人信息&lt;/span&gt;" style="text;html=1;align=center;verticalAlign=middle;resizable=0;points=[];autosize=1;strokeColor=none;fillColor=none;" vertex="1" parent="1">
                    <mxGeometry x="962" y="5615" width="90" height="50" as="geometry"/>
                </mxCell>
                <mxCell id="635" style="html=1;exitX=1;exitY=0.5;exitDx=0;exitDy=0;exitPerimeter=0;fontSize=16;entryX=1;entryY=0.5;entryDx=0;entryDy=0;entryPerimeter=0;strokeColor=default;rounded=1;endArrow=none;endFill=0;" edge="1" parent="1" source="636">
                    <mxGeometry relative="1" as="geometry">
                        <mxPoint x="1232.999999999999" y="5750.5" as="targetPoint"/>
                    </mxGeometry>
                </mxCell>
                <mxCell id="636" value="" style="line;strokeWidth=2;html=1;labelBorderColor=none;fontSize=23;fillColor=default;strokeColor=#FFFFFF;" vertex="1" parent="1">
                    <mxGeometry x="947" y="5710.5" width="371" height="10" as="geometry"/>
                </mxCell>
                <mxCell id="637" style="edgeStyle=none;shape=connector;rounded=1;html=1;exitX=1;exitY=0.5;exitDx=0;exitDy=0;exitPerimeter=0;labelBackgroundColor=default;strokeColor=default;fontFamily=Helvetica;fontSize=16;fontColor=default;endArrow=none;endFill=0;" edge="1" parent="1" source="638">
                    <mxGeometry relative="1" as="geometry">
                        <mxPoint x="1232.999999999999" y="5750.5" as="targetPoint"/>
                    </mxGeometry>
                </mxCell>
                <mxCell id="638" value="" style="line;strokeWidth=2;html=1;labelBorderColor=none;fontSize=23;fillColor=default;strokeColor=#FFFFFF;" vertex="1" parent="1">
                    <mxGeometry x="947" y="5780.5" width="371" height="10" as="geometry"/>
                </mxCell>
                <mxCell id="639" value="T" style="text;html=1;align=center;verticalAlign=middle;resizable=0;points=[];autosize=1;strokeColor=none;fillColor=none;fontSize=16;fontFamily=Helvetica;fontColor=default;" vertex="1" parent="1">
                    <mxGeometry x="1206" y="5718.5" width="30" height="30" as="geometry"/>
                </mxCell>
                <mxCell id="640" value="F" style="text;html=1;align=center;verticalAlign=middle;resizable=0;points=[];autosize=1;strokeColor=none;fillColor=none;fontSize=16;fontFamily=Helvetica;fontColor=default;" vertex="1" parent="1">
                    <mxGeometry x="1206" y="5755.5" width="30" height="30" as="geometry"/>
                </mxCell>
                <mxCell id="641" value="" style="rounded=0;whiteSpace=wrap;html=1;strokeColor=#FFFFFF;" vertex="1" parent="1">
                    <mxGeometry x="1318" y="5692.5" width="223" height="46" as="geometry"/>
                </mxCell>
                <mxCell id="642" value="" style="rounded=0;whiteSpace=wrap;html=1;strokeColor=#FFFFFF;" vertex="1" parent="1">
                    <mxGeometry x="1318" y="5761.5" width="223" height="46" as="geometry"/>
                </mxCell>
                <mxCell id="643" value="&lt;span style=&quot;font-size: 16px;&quot;&gt;进一步检查&lt;br&gt;&lt;/span&gt;" style="text;html=1;align=center;verticalAlign=middle;resizable=0;points=[];autosize=1;strokeColor=none;fillColor=none;" vertex="1" parent="1">
                    <mxGeometry x="1377" y="5702.5" width="100" height="30" as="geometry"/>
                </mxCell>
                <mxCell id="644" value="" style="rounded=0;whiteSpace=wrap;html=1;strokeColor=#FFFFFF;" vertex="1" parent="1">
                    <mxGeometry x="947" y="5825" width="120" height="60" as="geometry"/>
                </mxCell>
                <mxCell id="645" value="&lt;span style=&quot;font-size: 16px;&quot;&gt;结束&lt;/span&gt;" style="text;html=1;align=center;verticalAlign=middle;resizable=0;points=[];autosize=1;strokeColor=none;fillColor=none;" vertex="1" parent="1">
                    <mxGeometry x="977" y="5840" width="60" height="30" as="geometry"/>
                </mxCell>
                <mxCell id="646" value="&lt;span style=&quot;font-size: 16px;&quot;&gt;信息合法么&lt;/span&gt;" style="text;html=1;align=center;verticalAlign=middle;resizable=0;points=[];autosize=1;strokeColor=none;fillColor=none;" vertex="1" parent="1">
                    <mxGeometry x="1082.5" y="5735" width="100" height="30" as="geometry"/>
                </mxCell>
                <mxCell id="647" value="&lt;span style=&quot;font-size: 16px;&quot;&gt;不做处理&lt;br&gt;&lt;/span&gt;" style="text;html=1;align=center;verticalAlign=middle;resizable=0;points=[];autosize=1;strokeColor=none;fillColor=none;" vertex="1" parent="1">
                    <mxGeometry x="1377" y="5771.5" width="90" height="30" as="geometry"/>
                </mxCell>
                <mxCell id="648" value="" style="rounded=0;whiteSpace=wrap;html=1;strokeColor=#FFFFFF;" vertex="1" parent="1">
                    <mxGeometry x="944" y="6145" width="120" height="60" as="geometry"/>
                </mxCell>
                <mxCell id="649" value="&lt;span style=&quot;font-size: 16px;&quot;&gt;进一步检查&lt;/span&gt;" style="text;html=1;align=center;verticalAlign=middle;resizable=0;points=[];autosize=1;strokeColor=none;fillColor=none;" vertex="1" parent="1">
                    <mxGeometry x="954" y="6160" width="100" height="30" as="geometry"/>
                </mxCell>
                <mxCell id="650" value="" style="shape=link;html=1;rounded=1;labelBackgroundColor=default;strokeColor=default;fontFamily=Helvetica;fontSize=16;fontColor=default;endArrow=none;endFill=0;strokeWidth=2;" edge="1" parent="1">
                    <mxGeometry width="100" relative="1" as="geometry">
                        <mxPoint x="1064" y="6178.66" as="sourcePoint"/>
                        <mxPoint x="1154" y="6179" as="targetPoint"/>
                    </mxGeometry>
                </mxCell>
                <mxCell id="651" value="def" style="text;html=1;align=center;verticalAlign=middle;resizable=0;points=[];autosize=1;strokeColor=none;fillColor=none;fontSize=16;fontFamily=Helvetica;fontColor=default;" vertex="1" parent="1">
                    <mxGeometry x="1084" y="6130" width="50" height="30" as="geometry"/>
                </mxCell>
                <mxCell id="652" value="" style="line;strokeWidth=2;html=1;labelBorderColor=none;fontSize=23;fillColor=#eeeeee;strokeColor=#FFFFFF;direction=south;" vertex="1" parent="1">
                    <mxGeometry x="1150" y="6070" width="10" height="200" as="geometry"/>
                </mxCell>
                <mxCell id="655" style="html=1;exitX=1;exitY=0.5;exitDx=0;exitDy=0;exitPerimeter=0;fontSize=16;entryX=1;entryY=0.5;entryDx=0;entryDy=0;entryPerimeter=0;strokeColor=default;rounded=1;endArrow=none;endFill=0;" edge="1" parent="1" source="656">
                    <mxGeometry relative="1" as="geometry">
                        <mxPoint x="1332" y="6175.5" as="targetPoint"/>
                    </mxGeometry>
                </mxCell>
                <mxCell id="656" value="" style="line;strokeWidth=2;html=1;labelBorderColor=none;fontSize=23;fillColor=default;strokeColor=#FFFFFF;" vertex="1" parent="1">
                    <mxGeometry x="1156" y="6135.5" width="261" height="10" as="geometry"/>
                </mxCell>
                <mxCell id="657" style="edgeStyle=none;shape=connector;rounded=1;html=1;exitX=1;exitY=0.5;exitDx=0;exitDy=0;exitPerimeter=0;labelBackgroundColor=default;strokeColor=default;fontFamily=Helvetica;fontSize=16;fontColor=default;endArrow=none;endFill=0;" edge="1" parent="1" source="658">
                    <mxGeometry relative="1" as="geometry">
                        <mxPoint x="1332" y="6175.5" as="targetPoint"/>
                    </mxGeometry>
                </mxCell>
                <mxCell id="658" value="" style="line;strokeWidth=2;html=1;labelBorderColor=none;fontSize=23;fillColor=default;strokeColor=#FFFFFF;" vertex="1" parent="1">
                    <mxGeometry x="1156" y="6205.5" width="261" height="10" as="geometry"/>
                </mxCell>
                <mxCell id="659" value="T" style="text;html=1;align=center;verticalAlign=middle;resizable=0;points=[];autosize=1;strokeColor=none;fillColor=none;fontSize=16;fontFamily=Helvetica;fontColor=default;" vertex="1" parent="1">
                    <mxGeometry x="1305" y="6143.5" width="30" height="30" as="geometry"/>
                </mxCell>
                <mxCell id="660" value="F" style="text;html=1;align=center;verticalAlign=middle;resizable=0;points=[];autosize=1;strokeColor=none;fillColor=none;fontSize=16;fontFamily=Helvetica;fontColor=default;" vertex="1" parent="1">
                    <mxGeometry x="1305" y="6180.5" width="30" height="30" as="geometry"/>
                </mxCell>
                <mxCell id="661" value="" style="rounded=0;whiteSpace=wrap;html=1;strokeColor=#FFFFFF;" vertex="1" parent="1">
                    <mxGeometry x="1417" y="6117.5" width="120" height="46" as="geometry"/>
                </mxCell>
                <mxCell id="662" value="" style="rounded=0;whiteSpace=wrap;html=1;strokeColor=#FFFFFF;" vertex="1" parent="1">
                    <mxGeometry x="1417" y="6186.5" width="120" height="46" as="geometry"/>
                </mxCell>
                <mxCell id="663" value="&lt;span style=&quot;font-size: 16px;&quot;&gt;注册一个新用户&lt;/span&gt;" style="text;html=1;align=center;verticalAlign=middle;resizable=0;points=[];autosize=1;strokeColor=none;fillColor=none;" vertex="1" parent="1">
                    <mxGeometry x="1407" y="6195.5" width="140" height="30" as="geometry"/>
                </mxCell>
                <mxCell id="664" value="&lt;span style=&quot;font-size: 16px;&quot;&gt;不做处理&lt;/span&gt;" style="text;html=1;align=center;verticalAlign=middle;resizable=0;points=[];autosize=1;strokeColor=none;fillColor=none;" vertex="1" parent="1">
                    <mxGeometry x="1432" y="6125.5" width="90" height="30" as="geometry"/>
                </mxCell>
                <mxCell id="665" value="&lt;span style=&quot;font-size: 16px;&quot;&gt;是否已经有同样信息&lt;br&gt;的用户&lt;/span&gt;" style="text;html=1;align=center;verticalAlign=middle;resizable=0;points=[];autosize=1;strokeColor=none;fillColor=none;" vertex="1" parent="1">
                    <mxGeometry x="1149" y="6150" width="170" height="50" as="geometry"/>
                </mxCell>
                <mxCell id="666" value="" style="line;strokeWidth=2;html=1;labelBorderColor=none;fontSize=23;fillColor=#eeeeee;strokeColor=#FFFFFF;direction=south;" vertex="1" parent="1">
                    <mxGeometry x="1891" y="5590" width="10" height="340" as="geometry"/>
                </mxCell>
                <mxCell id="667" value="" style="rounded=0;whiteSpace=wrap;html=1;strokeColor=#FFFFFF;" vertex="1" parent="1">
                    <mxGeometry x="1897" y="5620" width="120" height="60" as="geometry"/>
                </mxCell>
                <mxCell id="668" value="&lt;span style=&quot;font-size: 16px;&quot;&gt;用户填入登录&lt;br&gt;所需信息&lt;/span&gt;" style="text;html=1;align=center;verticalAlign=middle;resizable=0;points=[];autosize=1;strokeColor=none;fillColor=none;" vertex="1" parent="1">
                    <mxGeometry x="1897" y="5625" width="120" height="50" as="geometry"/>
                </mxCell>
                <mxCell id="669" style="html=1;exitX=1;exitY=0.5;exitDx=0;exitDy=0;exitPerimeter=0;fontSize=16;entryX=1;entryY=0.5;entryDx=0;entryDy=0;entryPerimeter=0;strokeColor=default;rounded=1;endArrow=none;endFill=0;" edge="1" parent="1" source="670">
                    <mxGeometry relative="1" as="geometry">
                        <mxPoint x="2182.999999999999" y="5760.5" as="targetPoint"/>
                    </mxGeometry>
                </mxCell>
                <mxCell id="670" value="" style="line;strokeWidth=2;html=1;labelBorderColor=none;fontSize=23;fillColor=default;strokeColor=#FFFFFF;" vertex="1" parent="1">
                    <mxGeometry x="1897" y="5720.5" width="371" height="10" as="geometry"/>
                </mxCell>
                <mxCell id="671" style="edgeStyle=none;shape=connector;rounded=1;html=1;exitX=1;exitY=0.5;exitDx=0;exitDy=0;exitPerimeter=0;labelBackgroundColor=default;strokeColor=default;fontFamily=Helvetica;fontSize=16;fontColor=default;endArrow=none;endFill=0;" edge="1" parent="1" source="672">
                    <mxGeometry relative="1" as="geometry">
                        <mxPoint x="2182.999999999999" y="5760.5" as="targetPoint"/>
                    </mxGeometry>
                </mxCell>
                <mxCell id="672" value="" style="line;strokeWidth=2;html=1;labelBorderColor=none;fontSize=23;fillColor=default;strokeColor=#FFFFFF;" vertex="1" parent="1">
                    <mxGeometry x="1897" y="5790.5" width="371" height="10" as="geometry"/>
                </mxCell>
                <mxCell id="673" value="T" style="text;html=1;align=center;verticalAlign=middle;resizable=0;points=[];autosize=1;strokeColor=none;fillColor=none;fontSize=16;fontFamily=Helvetica;fontColor=default;" vertex="1" parent="1">
                    <mxGeometry x="2156" y="5728.5" width="30" height="30" as="geometry"/>
                </mxCell>
                <mxCell id="674" value="F" style="text;html=1;align=center;verticalAlign=middle;resizable=0;points=[];autosize=1;strokeColor=none;fillColor=none;fontSize=16;fontFamily=Helvetica;fontColor=default;" vertex="1" parent="1">
                    <mxGeometry x="2156" y="5765.5" width="30" height="30" as="geometry"/>
                </mxCell>
                <mxCell id="675" value="" style="rounded=0;whiteSpace=wrap;html=1;strokeColor=#FFFFFF;" vertex="1" parent="1">
                    <mxGeometry x="2268" y="5702.5" width="223" height="46" as="geometry"/>
                </mxCell>
                <mxCell id="676" value="" style="rounded=0;whiteSpace=wrap;html=1;strokeColor=#FFFFFF;" vertex="1" parent="1">
                    <mxGeometry x="2268" y="5771.5" width="223" height="46" as="geometry"/>
                </mxCell>
                <mxCell id="677" value="&lt;span style=&quot;font-size: 16px;&quot;&gt;用户登录成功&lt;br&gt;&lt;/span&gt;" style="text;html=1;align=center;verticalAlign=middle;resizable=0;points=[];autosize=1;strokeColor=none;fillColor=none;" vertex="1" parent="1">
                    <mxGeometry x="2317" y="5712.5" width="120" height="30" as="geometry"/>
                </mxCell>
                <mxCell id="678" value="" style="rounded=0;whiteSpace=wrap;html=1;strokeColor=#FFFFFF;" vertex="1" parent="1">
                    <mxGeometry x="1897" y="5835" width="120" height="60" as="geometry"/>
                </mxCell>
                <mxCell id="679" value="&lt;span style=&quot;font-size: 16px;&quot;&gt;结束&lt;/span&gt;" style="text;html=1;align=center;verticalAlign=middle;resizable=0;points=[];autosize=1;strokeColor=none;fillColor=none;" vertex="1" parent="1">
                    <mxGeometry x="1927" y="5850" width="60" height="30" as="geometry"/>
                </mxCell>
                <mxCell id="680" value="&lt;span style=&quot;font-size: 16px;&quot;&gt;信息合法么&lt;/span&gt;" style="text;html=1;align=center;verticalAlign=middle;resizable=0;points=[];autosize=1;strokeColor=none;fillColor=none;" vertex="1" parent="1">
                    <mxGeometry x="2032.5" y="5745" width="100" height="30" as="geometry"/>
                </mxCell>
                <mxCell id="681" value="&lt;span style=&quot;font-size: 16px;&quot;&gt;不做处理&lt;br&gt;&lt;/span&gt;" style="text;html=1;align=center;verticalAlign=middle;resizable=0;points=[];autosize=1;strokeColor=none;fillColor=none;" vertex="1" parent="1">
                    <mxGeometry x="2327" y="5781.5" width="90" height="30" as="geometry"/>
                </mxCell>
                <mxCell id="698" value="&lt;h1&gt;病人模块&lt;/h1&gt;" style="text;html=1;align=center;verticalAlign=middle;resizable=0;points=[];autosize=1;strokeColor=none;fillColor=none;" vertex="1" parent="1">
                    <mxGeometry x="-250" y="1260" width="120" height="70" as="geometry"/>
                </mxCell>
                <mxCell id="700" value="&lt;font color=&quot;#ffffff&quot;&gt;查询流程&lt;/font&gt;" style="text;html=1;align=center;verticalAlign=middle;resizable=0;points=[];autosize=1;strokeColor=none;fillColor=none;fontSize=23;fontColor=#030303;" vertex="1" parent="1">
                    <mxGeometry x="106" y="1310" width="120" height="40" as="geometry"/>
                </mxCell>
                <mxCell id="701" value="&lt;font color=&quot;#ffffff&quot;&gt;病人确定项目开始&lt;/font&gt;&lt;span style=&quot;color: rgba(0, 0, 0, 0); font-family: monospace; font-size: 0px; text-align: start;&quot;&gt;%3CmxGraphModel%3E%3Croot%3E%3CmxCell%20id%3D%220%22%2F%3E%3CmxCell%20id%3D%221%22%20parent%3D%220%22%2F%3E%3CmxCell%20id%3D%222%22%20value%3D%22%26lt%3Bfont%20color%3D%26quot%3B%23ffffff%26quot%3B%26gt%3B%E6%9F%A5%E8%AF%A2%E6%B5%81%E7%A8%8B%26lt%3B%2Ffont%26gt%3B%22%20style%3D%22text%3Bhtml%3D1%3Balign%3Dcenter%3BverticalAlign%3Dmiddle%3Bresizable%3D0%3Bpoints%3D%5B%5D%3Bautosize%3D1%3BstrokeColor%3Dnone%3BfillColor%3Dnone%3BfontSize%3D23%3BfontColor%3D%23030303%3B%22%20vertex%3D%221%22%20parent%3D%221%22%3E%3CmxGeometry%20x%3D%22170%22%20y%3D%22440%22%20width%3D%22120%22%20height%3D%2240%22%20as%3D%22geometry%22%2F%3E%3C%2FmxCell%3E%3C%2Froot%3E%3C%2FmxGraphModel%3E&lt;/span&gt;" style="text;html=1;align=center;verticalAlign=middle;resizable=0;points=[];autosize=1;strokeColor=none;fillColor=none;fontSize=23;fontColor=#030303;" vertex="1" parent="1">
                    <mxGeometry x="745" y="1310" width="210" height="40" as="geometry"/>
                </mxCell>
                <mxCell id="702" value="&lt;font color=&quot;#ffffff&quot;&gt;病人确定项目结束&lt;/font&gt;&lt;span style=&quot;color: rgba(0, 0, 0, 0); font-family: monospace; font-size: 0px; text-align: start;&quot;&gt;%3CmxGraphModel%3E%3Croot%3E%3CmxCell%20id%3D%220%22%2F%3E%3CmxCell%20id%3D%221%22%20parent%3D%220%22%2F%3E%3CmxCell%20id%3D%222%22%20value%3D%22%26lt%3Bfont%20color%3D%26quot%3B%23ffffff%26quot%3B%26gt%3B%E6%9F%A5%E8%AF%A2%E6%B5%81%E7%A8%8B%26lt%3B%2Ffont%26gt%3B%22%20style%3D%22text%3Bhtml%3D1%3Balign%3Dcenter%3BverticalAlign%3Dmiddle%3Bresizable%3D0%3Bpoints%3D%5B%5D%3Bautosize%3D1%3BstrokeColor%3Dnone%3BfillColor%3Dnone%3BfontSize%3D23%3BfontColor%3D%23030303%3B%22%20vertex%3D%221%22%20parent%3D%221%22%3E%3CmxGeometry%20x%3D%22170%22%20y%3D%22440%22%20width%3D%22120%22%20height%3D%2240%22%20as%3D%22geometry%22%2F%3E%3C%2FmxCell%3E%3C%2Froot%3E%3C%2FmxGraphModel%3E&lt;/span&gt;" style="text;html=1;align=center;verticalAlign=middle;resizable=0;points=[];autosize=1;strokeColor=none;fillColor=none;fontSize=23;fontColor=#030303;" vertex="1" parent="1">
                    <mxGeometry x="1518" y="1300" width="210" height="40" as="geometry"/>
                </mxCell>
                <mxCell id="703" value="&lt;h1&gt;医生模块&lt;/h1&gt;" style="text;html=1;align=center;verticalAlign=middle;resizable=0;points=[];autosize=1;strokeColor=none;fillColor=none;" vertex="1" parent="1">
                    <mxGeometry x="-216" y="2393.5" width="120" height="70" as="geometry"/>
                </mxCell>
                <mxCell id="704" value="&lt;font color=&quot;#ffffff&quot;&gt;开始治疗项目&lt;/font&gt;" style="text;html=1;align=center;verticalAlign=middle;resizable=0;points=[];autosize=1;strokeColor=none;fillColor=none;fontSize=23;fontColor=#030303;" vertex="1" parent="1">
                    <mxGeometry x="92" y="2470" width="160" height="40" as="geometry"/>
                </mxCell>
                <mxCell id="705" value="&lt;font color=&quot;#ffffff&quot;&gt;结束治疗项目&lt;/font&gt;" style="text;html=1;align=center;verticalAlign=middle;resizable=0;points=[];autosize=1;strokeColor=none;fillColor=none;fontSize=23;fontColor=#030303;" vertex="1" parent="1">
                    <mxGeometry x="904" y="2463.5" width="160" height="40" as="geometry"/>
                </mxCell>
                <mxCell id="706" value="&lt;font color=&quot;#ffffff&quot;&gt;查询当前可开启治疗项目&lt;/font&gt;" style="text;html=1;align=center;verticalAlign=middle;resizable=0;points=[];autosize=1;strokeColor=none;fillColor=none;fontSize=23;fontColor=#030303;" vertex="1" parent="1">
                    <mxGeometry x="1742" y="2470" width="280" height="40" as="geometry"/>
                </mxCell>
                <mxCell id="707" value="&lt;font color=&quot;#ffffff&quot;&gt;查询病人治疗流程&lt;/font&gt;" style="text;html=1;align=center;verticalAlign=middle;resizable=0;points=[];autosize=1;strokeColor=none;fillColor=none;fontSize=23;fontColor=#030303;" vertex="1" parent="1">
                    <mxGeometry x="2227" y="2480" width="210" height="40" as="geometry"/>
                </mxCell>
                <mxCell id="708" value="&lt;font color=&quot;#ffffff&quot;&gt;医生排班&lt;/font&gt;" style="text;html=1;align=center;verticalAlign=middle;resizable=0;points=[];autosize=1;strokeColor=none;fillColor=none;fontSize=23;fontColor=#030303;" vertex="1" parent="1">
                    <mxGeometry x="110" y="3687" width="120" height="40" as="geometry"/>
                </mxCell>
                <mxCell id="709" value="&lt;font color=&quot;#ffffff&quot;&gt;诊疗室安排&lt;/font&gt;" style="text;html=1;align=center;verticalAlign=middle;resizable=0;points=[];autosize=1;strokeColor=none;fillColor=none;fontSize=23;fontColor=#030303;" vertex="1" parent="1">
                    <mxGeometry x="924" y="3687" width="140" height="40" as="geometry"/>
                </mxCell>
                <mxCell id="710" value="&lt;font color=&quot;#ffffff&quot;&gt;添加流程&lt;/font&gt;" style="text;html=1;align=center;verticalAlign=middle;resizable=0;points=[];autosize=1;strokeColor=none;fillColor=none;fontSize=23;fontColor=#030303;" vertex="1" parent="1">
                    <mxGeometry x="1796" y="3680" width="120" height="40" as="geometry"/>
                </mxCell>
                <mxCell id="711" value="&lt;font color=&quot;#ffffff&quot;&gt;删除流程&lt;/font&gt;" style="text;html=1;align=center;verticalAlign=middle;resizable=0;points=[];autosize=1;strokeColor=none;fillColor=none;fontSize=23;fontColor=#030303;" vertex="1" parent="1">
                    <mxGeometry x="2511" y="3687" width="120" height="40" as="geometry"/>
                </mxCell>
                <mxCell id="712" value="&lt;font color=&quot;#ffffff&quot;&gt;编辑流程&lt;/font&gt;" style="text;html=1;align=center;verticalAlign=middle;resizable=0;points=[];autosize=1;strokeColor=none;fillColor=none;fontSize=23;fontColor=#030303;" vertex="1" parent="1">
                    <mxGeometry x="3240" y="3670" width="120" height="40" as="geometry"/>
                </mxCell>
                <mxCell id="713" value="&lt;h1&gt;用户模块&lt;/h1&gt;" style="text;html=1;align=center;verticalAlign=middle;resizable=0;points=[];autosize=1;strokeColor=none;fillColor=none;" vertex="1" parent="1">
                    <mxGeometry x="-139" y="5420.5" width="120" height="70" as="geometry"/>
                </mxCell>
                <mxCell id="714" value="&lt;font color=&quot;#ffffff&quot;&gt;用户报道&lt;/font&gt;" style="text;html=1;align=center;verticalAlign=middle;resizable=0;points=[];autosize=1;strokeColor=none;fillColor=none;fontSize=23;fontColor=#030303;" vertex="1" parent="1">
                    <mxGeometry x="125" y="5500" width="120" height="40" as="geometry"/>
                </mxCell>
                <mxCell id="715" value="&lt;font color=&quot;#ffffff&quot;&gt;用户登录&lt;/font&gt;" style="text;html=1;align=center;verticalAlign=middle;resizable=0;points=[];autosize=1;strokeColor=none;fillColor=none;fontSize=23;fontColor=#030303;" vertex="1" parent="1">
                    <mxGeometry x="1867" y="5500" width="120" height="40" as="geometry"/>
                </mxCell>
                <mxCell id="716" value="&lt;font color=&quot;#ffffff&quot;&gt;用户注册&lt;/font&gt;" style="text;html=1;align=center;verticalAlign=middle;resizable=0;points=[];autosize=1;strokeColor=none;fillColor=none;fontSize=23;fontColor=#030303;" vertex="1" parent="1">
                    <mxGeometry x="913" y="5510" width="120" height="40" as="geometry"/>
                </mxCell>
            </root>
        </mxGraphModel>
    </diagram>
</mxfile>